<svg xmlns="http://www.w3.org/2000/svg" width="1024" height="1024" style="display:block" viewBox="0 0 2048 2048"><defs><linearGradient id="T" x1="511.2" x2="452" y1="398.3" y2="395.2" gradientUnits="userSpaceOnUse"><stop class="stop0" offset="0" stop-color="#13100b"/><stop class="stop1" offset="1" stop-color="#332f2d"/></linearGradient><linearGradient id="S" x1="1667.8" x2="1675" y1="1205.4" y2="1232.9" gradientUnits="userSpaceOnUse"><stop class="stop0" offset="0" stop-color="#050402"/><stop class="stop1" offset="1" stop-color="#262425"/></linearGradient><linearGradient id="R" x1="1711.8" x2="1569.6" y1="1185.4" y2="1199.2" gradientUnits="userSpaceOnUse"><stop class="stop0" offset="0" stop-color="#debe6e"/><stop class="stop1" offset="1" stop-color="#f7e29c"/></linearGradient><linearGradient id="Q" x1="397.2" x2="303.2" y1="719" y2="739.6" gradientUnits="userSpaceOnUse"><stop class="stop0" offset="0" stop-color="#060503"/><stop class="stop1" offset="1" stop-color="#282624"/></linearGradient><linearGradient id="P" x1="697.6" x2="679.5" y1="389" y2="276.7" gradientUnits="userSpaceOnUse"><stop class="stop0" offset="0"/><stop class="stop1" offset="1" stop-color="#313030"/></linearGradient><linearGradient id="O" x1="287.4" x2="463.7" y1="1057.6" y2="1114.9" gradientUnits="userSpaceOnUse"><stop class="stop0" offset="0" stop-color="#dfbf70"/><stop class="stop1" offset="1" stop-color="#faeaa6"/></linearGradient><linearGradient id="N" x1="350" x2="489.1" y1="1176.9" y2="1203.3" gradientUnits="userSpaceOnUse"><stop class="stop0" offset="0" stop-color="#dfc174"/><stop class="stop1" offset="1" stop-color="#f5e29a"/></linearGradient><linearGradient id="M" x1="207.8" x2="203.8" y1="1717.1" y2="1697.5" gradientUnits="userSpaceOnUse"><stop class="stop0" offset="0" stop-color="#060809"/><stop class="stop1" offset="1" stop-color="#2b2929"/></linearGradient><linearGradient id="L" x1="1826.3" x2="1754.6" y1="1880" y2="1846.6" gradientUnits="userSpaceOnUse"><stop class="stop0" offset="0" stop-color="#ab8140"/><stop class="stop1" offset="1" stop-color="#e1c176"/></linearGradient><linearGradient id="K" x1="1472.7" x2="1443.5" y1="1662.9" y2="1541.1" gradientUnits="userSpaceOnUse"><stop class="stop0" offset="0" stop-color="#56331a"/><stop class="stop1" offset="1" stop-color="#7b4927"/></linearGradient><linearGradient id="J" x1="1778.9" x2="1777.6" y1="1375.4" y2="1689.4" gradientUnits="userSpaceOnUse"><stop class="stop0" offset="0" stop-color="#010000"/><stop class="stop1" offset="1" stop-color="#383325"/></linearGradient><linearGradient id="I" x1="1465.3" x2="1754.9" y1="1548.5" y2="1686.3" gradientUnits="userSpaceOnUse"><stop class="stop0" offset="0" stop-color="#a0752c"/><stop class="stop1" offset="1" stop-color="#f6d178"/></linearGradient><linearGradient id="H" x1="1776.5" x2="1593.9" y1="1084.8" y2="1095.3" gradientUnits="userSpaceOnUse"><stop class="stop0" offset="0" stop-color="#debe6d"/><stop class="stop1" offset="1" stop-color="#fbe9a6"/></linearGradient><linearGradient id="G" x1="1250.9" x2="1172" y1="603.9" y2="604.1" gradientUnits="userSpaceOnUse"><stop class="stop0" offset="0" stop-color="#763607"/><stop class="stop1" offset="1" stop-color="#b68c33"/></linearGradient><linearGradient id="F" x1="1038.6" x2="1038.3" y1="548.2" y2="517" gradientUnits="userSpaceOnUse"><stop class="stop0" offset="0" stop-color="#908c48"/><stop class="stop1" offset="1" stop-color="#b3a85c"/></linearGradient><linearGradient id="E" x1="973.5" x2="919.7" y1="643.5" y2="638.1" gradientUnits="userSpaceOnUse"><stop class="stop0" offset="0" stop-color="#d9bc70"/><stop class="stop1" offset="1" stop-color="#ffeead"/></linearGradient><linearGradient id="D" x1="815.5" x2="924.3" y1="622.1" y2="629.2" gradientUnits="userSpaceOnUse"><stop class="stop0" offset="0" stop-color="#a3720c"/><stop class="stop1" offset="1" stop-color="#ecd590"/></linearGradient><linearGradient id="C" x1="1212.1" x2="1169.2" y1="683.2" y2="685.5" gradientUnits="userSpaceOnUse"><stop class="stop0" offset="0" stop-color="#905c16"/><stop class="stop1" offset="1" stop-color="#b78d37"/></linearGradient><linearGradient id="B" x1="1029.1" x2="963.3" y1="704" y2="700.9" gradientUnits="userSpaceOnUse"><stop class="stop0" offset="0" stop-color="#ad7c1d"/><stop class="stop1" offset="1" stop-color="#ceb461"/></linearGradient><linearGradient id="A" x1="1227.9" x2="1136.1" y1="861.9" y2="862" gradientUnits="userSpaceOnUse"><stop class="stop0" offset="0" stop-color="#7d4004"/><stop class="stop1" offset="1" stop-color="#d0b054"/></linearGradient><linearGradient id="z" x1="982.4" x2="1142.7" y1="694.1" y2="931.2" gradientUnits="userSpaceOnUse"><stop class="stop0" offset="0" stop-color="#ceab59"/><stop class="stop1" offset="1" stop-color="#f4e5a0"/></linearGradient><linearGradient id="y" x1="682.2" x2="680.9" y1="1070.1" y2="1040.9" gradientUnits="userSpaceOnUse"><stop class="stop0" offset="0" stop-color="#b4984c"/><stop class="stop1" offset="1" stop-color="#d3c175"/></linearGradient><linearGradient id="x" x1="825.3" x2="826.7" y1="1083.9" y2="1033.1" gradientUnits="userSpaceOnUse"><stop class="stop0" offset="0" stop-color="#90905e"/><stop class="stop1" offset="1" stop-color="#c7c67f"/></linearGradient><linearGradient id="w" x1="737.4" x2="737.9" y1="1018.5" y2="1030.7" gradientUnits="userSpaceOnUse"><stop class="stop0" offset="0" stop-color="#936f1a"/><stop class="stop1" offset="1" stop-color="#785a1d"/></linearGradient><linearGradient id="v" x1="840.4" x2="847.4" y1="1054" y2="983.4" gradientUnits="userSpaceOnUse"><stop class="stop0" offset="0" stop-color="#cbc07b"/><stop class="stop1" offset="1" stop-color="#dfe0b1"/></linearGradient><linearGradient id="u" x1="1131" x2="1130.2" y1="1030.2" y2="1040.1" gradientUnits="userSpaceOnUse"><stop class="stop0" offset="0" stop-color="#8b671a"/><stop class="stop1" offset="1" stop-color="#655f22"/></linearGradient><linearGradient id="t" x1="1029.5" x2="1030" y1="1139.3" y2="1048" gradientUnits="userSpaceOnUse"><stop class="stop0" offset="0" stop-color="#8d561b"/><stop class="stop1" offset="1" stop-color="#c59c50"/></linearGradient><linearGradient id="s" x1="510.5" x2="565.3" y1="1163.9" y2="1245.3" gradientUnits="userSpaceOnUse"><stop class="stop0" offset="0" stop-color="#c19132"/><stop class="stop1" offset="1" stop-color="#f3cd7b"/></linearGradient><linearGradient id="r" x1="422.7" x2="664" y1="840.8" y2="845.6" gradientUnits="userSpaceOnUse"><stop class="stop0" offset="0" stop-color="#b98420"/><stop class="stop1" offset="1" stop-color="#cba34e"/></linearGradient><linearGradient id="q" x1="1416.2" x2="1364.6" y1="423.1" y2="422" gradientUnits="userSpaceOnUse"><stop class="stop0" offset="0" stop-color="#bb8930"/><stop class="stop1" offset="1" stop-color="#d0a751"/></linearGradient><linearGradient id="p" x1="1235.4" x2="1224.5" y1="365.4" y2="426" gradientUnits="userSpaceOnUse"><stop class="stop0" offset="0" stop-color="#d7b361"/><stop class="stop1" offset="1" stop-color="#f0d68c"/></linearGradient><linearGradient id="o" x1="669.4" x2="787.6" y1="421" y2="417.7" gradientUnits="userSpaceOnUse"><stop class="stop0" offset="0" stop-color="#e3c67a"/><stop class="stop1" offset="1" stop-color="#fce9a4"/></linearGradient><linearGradient id="n" x1="1011.1" x2="989.7" y1="1593.4" y2="1596" gradientUnits="userSpaceOnUse"><stop class="stop0" offset="0" stop-color="#e5d589"/><stop class="stop1" offset="1" stop-color="#b9c083"/></linearGradient><linearGradient id="m" x1="843.2" x2="724.2" y1="1601.5" y2="1624.1" gradientUnits="userSpaceOnUse"><stop class="stop0" offset="0" stop-color="#ddbf72"/><stop class="stop1" offset="1" stop-color="#fdedae"/></linearGradient><linearGradient id="l" x1="588.6" x2="729.3" y1="1541.3" y2="1574" gradientUnits="userSpaceOnUse"><stop class="stop0" offset="0" stop-color="#c19441"/><stop class="stop1" offset="1" stop-color="#f0d991"/></linearGradient><linearGradient id="k" x1="226" x2="300.5" y1="1890.9" y2="1846.4" gradientUnits="userSpaceOnUse"><stop class="stop0" offset="0" stop-color="#a77c46"/><stop class="stop1" offset="1" stop-color="#ddbd71"/></linearGradient><linearGradient id="j" x1="515.6" x2="663.9" y1="1578.1" y2="1911.3" gradientUnits="userSpaceOnUse"><stop class="stop0" offset="0"/><stop class="stop1" offset="1" stop-color="#282728"/></linearGradient><linearGradient id="i" x1="592.9" x2="298.7" y1="1557.3" y2="1688.3" gradientUnits="userSpaceOnUse"><stop class="stop0" offset="0" stop-color="#a2762e"/><stop class="stop1" offset="1" stop-color="#f6d37a"/></linearGradient><linearGradient id="h" x1="836.9" x2="720.1" y1="1328.3" y2="1328.7" gradientUnits="userSpaceOnUse"><stop class="stop0" offset="0" stop-color="#dec176"/><stop class="stop1" offset="1" stop-color="#fcedac"/></linearGradient><linearGradient id="g" x1="405.8" x2="542.5" y1="1448.7" y2="1452" gradientUnits="userSpaceOnUse"><stop class="stop0" offset="0" stop-color="#834a18"/><stop class="stop1" offset="1" stop-color="#b58a50"/></linearGradient><linearGradient id="f" x1="512.7" x2="726.9" y1="1396.4" y2="1395.6" gradientUnits="userSpaceOnUse"><stop class="stop0" offset="0" stop-color="#ac7f45"/><stop class="stop1" offset="1" stop-color="#f7e5a1"/></linearGradient><linearGradient id="e" x1="1681.5" x2="1551.3" y1="1445.6" y2="1446.7" gradientUnits="userSpaceOnUse"><stop class="stop0" offset="0" stop-color="#76390a"/><stop class="stop1" offset="1" stop-color="#a56f20"/></linearGradient><linearGradient id="d" x1="1043.9" x2="1169.6" y1="1302.9" y2="1306.5" gradientUnits="userSpaceOnUse"><stop class="stop0" offset="0" stop-color="#bb8a2c"/><stop class="stop1" offset="1" stop-color="#ddbc6d"/></linearGradient><linearGradient id="c" x1="1064.8" x2="825.3" y1="1307.3" y2="1310.6" gradientUnits="userSpaceOnUse"><stop class="stop0" offset="0" stop-color="#b47e18"/><stop class="stop1" offset="1" stop-color="#d5b364"/></linearGradient><linearGradient id="b" x1="1576" x2="1358" y1="1419" y2="1419" gradientUnits="userSpaceOnUse"><stop class="stop0" offset="0" stop-color="#9c630e"/><stop class="stop1" offset="1" stop-color="#dcbc65"/></linearGradient><linearGradient id="a" x1="1536" x2="510.8" y1="1213" y2="494.5" gradientUnits="userSpaceOnUse"><stop class="stop0" offset="0" stop-color="#005a28"/><stop class="stop1" offset="1" stop-color="#3c8d66"/></linearGradient></defs><path fill="url(#a)" d="M721 391a542 542 0 0 0 258-73l43-26h9l3 1h7c10 6 35 18 43 26a530 530 0 0 0 263 71c-4-9-10-18-6-28 9 13 23 30 37 39a1039 1039 0 0 1 79 5v-11q5 6 6 13c4 0 18 2 20 1l3 4 3 1 7-4c7 6 37 13 49 17h1v-4q1 4 3 7c7 1 49 23 53 22 3 7 18 11 27 22q-9 17-19 31c-5 8-22 40-20 47-7 4-5 8-3 15h-3q-4 2-3 8a560 560 0 0 0-15 78c0 12-7 65-4 71a707 707 0 0 0 0 129c-2 6 0 45 3 50-2 5 3 106 4 120 1 11 1 74 4 80-2 6-3 19 0 24-1 4-2 34 0 37-3 13-1 49-2 64-2 5-2 23-2 29l1 2 27 13 4-8c9 3 44 15 49 20 12 15-5 25-17 33q14 17 29 33c4 4 21 19 23 23-2 4-2 4-2 9 0 15-48 91-44 97-3 3-11 21-13 26l-29 58c-5 10-27 55-32 61l-1 3c-8-32-64-79-94-95l-7 7c-26 30-85 62-123 71l-14 4c-19 8-50 16-71 23l-50 18c-22 12-49 20-71 32-3 2-19 10-22 10-22 15-48 25-69 43l-13 12-1 2h-9l-42-28-59-33c-38-16-134-59-182-64-7-1-24 28-39 34q-42 17-86 35a642 642 0 0 0-338 227c-6 9-12 21-20 28-7 2-12-3-12-7-10-73 12-143 45-207l30-50h-6c-9-3-25 1-34-2q-3-2-2-5l35-4q-9-9-17-21l-34-58-5-16h-5c33-28 85-57 124-79l44-24c0-6-11-27-14-35-5-5-22-42-24-52v-14c5-9 21-26 29-32 4-5 36-29 37-31 5 0 39-24 50-29-2-8-1-23-6-28h1c1-4-2-26-2-31-2-15-2-51-2-67 1-5 0-40-1-47l-22-47-10-25a611 611 0 0 1-37-282c1-17 5-38 7-55l10-42q14-52 37-102l2-6-2-5q-9-29-25-52-10-11-18-24l27-19c5-4 5-3 6-8v2l2 1 18-10c5-4 32-12 35-15l1 1c10-4 47-12 53-16l4 2q5 0 10-4c5 1 17-1 22-2l33-2c12-2 35-1 49-2l18-15c6-6 18-17 21-25 4-11-8-10-15-10l2-1 6-1v-2l-1-2-17-4c13-1 35-3 36 14 0 11-11 25-16 35m-258 676 22 47q4-12 1-22l3-66c-18 9-19 5-24-13-9-18-10-51-3-69q11-20 28-38l6-8c0-8 2-33 0-39a658 658 0 0 0 2-137 625 625 0 0 0-7-88c-1-8-7-46-11-50l-1-9-1-1q-4 6-6 12l-3 2c2-7 10-24 6-27h-5q-23 50-37 102l-10 42c-2 17-6 38-7 55a805 805 0 0 0 2 139c6 54 17 92 35 143z"/><path fill="#086435" d="M1013 1172a1125 1125 0 0 1 193 13c15 1 116 17 127 22 55 11 103 31 156 46l21 9c4 1 14 7 17 6 3 7 28 14 38 21 0-7 1-26 5-30l27 13 4-8c9 3 44 15 49 20 12 15-5 25-17 33q14 17 29 33c4 4 21 19 23 23-2 4-2 4-2 9 0 15-48 91-44 97-3 3-11 21-13 26l-29 58c-5 10-27 55-32 61l-1 3c-8-32-64-79-94-95l-7 7c-26 30-85 62-123 71l-14 4c-19 8-50 16-71 23l-50 18c-22 12-49 20-71 32-3 2-19 10-22 10-22 15-48 25-69 43l-13 12-1 2h-9l-42-28-59-33c-38-16-134-59-182-64-7-1-24 28-39 34q-42 17-86 35a642 642 0 0 0-338 227c-6 9-12 21-20 28-7 2-12-3-12-7-10-73 12-143 45-207l30-50h-6c-9-3-25 1-34-2q-3-2-2-5l35-4q-9-9-17-21l-34-58-5-16h-5c33-28 85-57 124-79l44-24c0-6-11-27-14-35-5-5-22-42-24-52v-14c5-9 21-26 29-32 4-5 36-29 37-31 5 0 39-24 50-29l15-8 22-11c8-4 13-3 16-11l2 3c4 0 61-22 69-25q54-17 109-29l19-4q43-10 87-15 65-8 130-13l30-2z"/><path fill="url(#b)" d="M1013 1172a1125 1125 0 0 1 193 13c15 1 116 17 127 22 55 11 103 31 156 46l21 9c4 1 14 7 17 6 3 7 28 14 38 21 0-7 1-26 5-30l27 13 4-8c9 3 44 15 49 20 12 15-5 25-17 33q14 17 29 33c4 4 21 19 23 23-2 4-2 4-2 9 0 15-48 91-44 97-3 3-11 21-13 26l-29 58c-5 10-27 55-32 61l-1 3c-8-32-64-79-94-95l-7 7q0-3 3-6v-2c-14-14-35-21-52-28-32-14-49-19-81-31q-64-19-130-28l-55-7a1464 1464 0 0 0-301 8v-1c-5-1-11 3-16 1-5-11-3-89 6-98 6-1 5 4 11 1-21-4-11-31-18-44q-5 0-6-5l15-6c-5-1-7 3-13 2-1-31 8-65 4-96 0-4-2-4 1-9q3-3 7-2l-4-1q65-8 130-13l30-2z"/><path fill="url(#c)" d="M1013 1172a1125 1125 0 0 1 193 13l-2 1-29-3c-6 6-5 63-5 73l-3 7c6 5 22-2 22 4 1 4-4 26-3 29l5-1 2 1c6 0 7 1 13 3 9 13 7 22 2 36q-2 7-8 11l-16 5q-10-4-18-3c-2 2 2 11 2 16 1 11 0 64-6 71v1c8 3 31 5 40 6l1 2-55-7a1464 1464 0 0 0-301 8v-1c-5-1-11 3-16 1-5-11-3-89 6-98 6-1 5 4 11 1-21-4-11-31-18-44q-5 0-6-5l15-6c-5-1-7 3-13 2-1-31 8-65 4-96 0-4-2-4 1-9q3-3 7-2l-4-1q65-8 130-13l30-2z"/><path fill="url(#d)" d="M1013 1172a1125 1125 0 0 1 193 13l-2 1-29-3c-6 6-5 63-5 73l-3 7c6 5 22-2 22 4 1 4-4 26-3 29l5-1 2 1c6 0 7 1 13 3 9 13 7 22 2 36q-2 7-8 11l-16 5q-10-4-18-3c-2 2 2 11 2 16 1 11 0 64-6 71v1c8 3 31 5 40 6l1 2-55-7c-43-3-80-4-122-4 5-4 12-2 19-2 14-11 9-56 8-71-1-40-13-18-25-27-7-1-18 1-22-1q1-3 6-5c0-16 2-42 1-59l-6-7c3-2 16-1 21-1 5-2 18-2 23 1 3 1-1 1 3 1-2-5 11-80 7-87-12-3-33 0-48-3"/><path fill="#070706" d="M1012 1327c0-16 2-42 1-59l-6-7c3-2 16-1 21-1 10 0 21 0 29 8q10 11-2 21c-2 2-8 1-8 4 6 5 14 5 15 14 2 20-14 26-32 26h-2c-7-1-18 1-22-1q1-3 6-5"/><path fill="#c09338" d="M1028 1296q7 0 13 4c8 7 7 18 1 25q-7 7-14 2c-3-8-1-22 0-31M1028 1265c17 0 21 11 12 24-17 12-12-15-12-24"/><path fill="#070706" d="M1208 1335c-4 2-8 9-14 12-11 3-15 1-24-4q-4-1-7 1c-4-2 8-58 8-66 1-10-2-3-5-9l1-2 20-1c-1 9-5 26-3 32l2 2 7-4c6 0 7 1 13 3 9 13 7 22 2 36"/><path fill="#e9cf84" d="M1185 1303c13 2 14 9 13 22q-1 11-10 18l-11-1c-3-6 2-27 4-34q1-4 4-5"/><path fill="#070706" d="M1084 1283c35-1 23 17 23 41q1 4 7 8l-1 1c-9 8-11 6-19-1-11 0-7 8-22 2-5-4-9-12-4-18q12-10 28-10c0-6 0-18-7-19-7 4-8 15-15 13l-2-2q1-13 12-15"/><path fill="#cda653" d="m1092 1311 2 1q5 16-10 15-1 2-3-1-2-13 11-15"/><path fill="#070706" d="m1141 1286 1 1 1 7c4 1 10-10 15-6q2 11-2 20-4-5-12-8c-3 5-7 31-5 35l4 3 1 1c-3 1-21-1-25-1l-1-1c1-4 7-6 7-8l3-31q-5-2-5-7c3-2 13-3 18-5M839 1293h3c8 11-2 54 19 42 4-3 0-32-2-36l-4-2-1-2c3-3 15-5 19-7l5 43 7 6v2c-4 1-14 5-18 5l-1-6c-6 1-5 7-18 10-21-4-11-31-18-44q-5 0-6-5zM941 1281c36-2 40 48 8 56-25 1-35-20-26-42q6-11 18-14"/><path fill="#c09338" d="M945 1284q7 5 9 13c2 13 6 32-10 36-10-3-11-27-9-37 2-7 4-8 10-12"/><path fill="#070706" d="m899 1259 3 1 7 71 6 4-1 2-21 3h-3l5-9-6-60q-3-1-7-5v-2z"/><path fill="#e9cf84" d="m1193 1296-2-1-5 1c-1-3 4-25 3-29 0-6-16 1-22-4l3-7c0-10-1-67 5-73l29 3 2-1c15 1 116 17 127 22 7 5 28 5 28 11q8 56-3 111l2 4h-3c-8-6-12-6-22-6l-4 2c51 0 16 37 21 51l6 4q-6 3-12 3 9 5 14-3c-2-5-5-4-6-5-2-6 6-25 7-31l5 64c0 19-5 46 0 65q0 3-3 3c-8-1-25-10-30-8q-64-19-130-28l-1-2c-9-1-32-3-40-6v-1c6-7 7-60 6-71 0-5-4-14-2-16q8-1 18 3l16-5q6-4 8-11c5-14 7-23-2-36-6-2-7-3-13-3"/><path fill="#070706" d="M1331 1329c51 0 16 37 21 51l6 4q-6 3-12 3c-7-3-6-4-9-11l-11 4c-13 1-18-15-10-23 6-6 21-4 29-4v-5q2-6-2-13c-7-1-10 6-17 9h-2q-2-10 7-15"/><path fill="#e9cf84" d="m1334 1358 6 1 1 1q2 9-7 13-5 1-7-3t1-7q2-5 6-5"/><path fill="#070706" d="M1239 1304q10-1 18 3 9 5 11 14c5 17-3 34-21 38q-9 1-16-3-9-4-12-13c-5-16 4-34 20-39"/><path fill="#eedb94" d="M1242 1309c15-1 14 10 13 21q-1 13-10 25-10 2-12-6c-4-13 1-31 9-40"/><path fill="#070706" d="M1294 1316q12 3 22 8-2 7-5 12c-4-1-2-14-14-15-3 1-7 7-6 8 13 13 36 38-3 43q-10-2-18-9 0-9 7-13l2 1c2 6-3 9 3 14 4 1 13 2 16-3-2-12-41-32-4-46"/><path fill="url(#e)" d="M1565 1289c0-7 1-26 5-30l27 13 4-8c9 3 44 15 49 20 12 15-5 25-17 33q14 17 29 33c4 4 21 19 23 23-2 4-2 4-2 9 0 15-48 91-44 97-3 3-11 21-13 26l-29 58c-5 10-27 55-32 61 2-9 11-18 11-26l-4-2-2 1c-9-17-2-71-5-93-1-10 7-19 1-28-18-5-19-14-17-30-1-12 15-19 16-26l-2-1q-10-2-20 0l2-3 3-1c5 3 6 4 11 0l-1-1-7-3h-1c-1-5 4-7 4-15q-1-3-6-3h7l2 2h1c7-13 10-54 12-71q-1-10 1-19c3-8 3-5-1-12z"/><path fill="#e9cf84" d="M1565 1289c0-7 1-26 5-30l27 13 4-8c9 3 44 15 49 20q-4 4-5 9c-6 11-21 21-32 25-6-2-34-20-43-25z"/><path fill="#1a1714" d="M1601 1264c9 3 44 15 49 20q-4 4-5 9c-4-7-34-13-48-21z"/><path fill="#070706" d="M1650 1284c12 15-5 25-17 33q14 17 29 33c4 4 21 19 23 23-2 4-2 4-2 9-14-16-34-36-51-50q-9-6-19-14c11-4 26-14 32-25q1-4 5-9"/><path fill="#1a1714" d="M1549 1446c7-17 20-28 39-20l-1 4v13q-3 4-9 1l-2 3q-4-3-10-4c-7 8-6 28 9 29l-4 4h-5c-18-5-19-14-17-30"/><path fill="#8d691e" d="M1578 1444q-6-1-7-7 5-9 16-7v13q-3 4-9 1"/><path fill="#070706" d="M1588 1426c12 9 11 15 7 30l-19-9 2-3q6 3 9-1v-13zM1575 1472q4 0 7 2-5 4-11 2zM1543 1419c-2 8-15 26-11 33l6 2c0 3 1 1-1 4q-6 1-12-1c-20-7 3-33 7-44q1-6-2-8l-1-1 1-2h6c7-3 1-8 12-9q5 0 6 3c0 8-5 10-4 15h1l7 3 1 1c-5 4-6 3-11 0l-3 1z"/><path fill="#1a1714" d="M1408 1328c6 3 25 9 27 12q-2 2-7 1c-2 3-20 53-21 59v1l17 5c2-3 7-10 11-10 2 3 1 2 0 6l-6 13q-23-9-45-16c4-7 10-8 13-18 2-10 16-36 15-45z"/><path fill="#070706" d="M1464 1374c24 0 29 11 24 32l-31-11-2 18 7 7c4 2 14 2 16 5-4 6-21 2-27-1q-7-3-9-11c-5-16 6-34 22-39"/><path fill="#c09338" d="m1469 1380 7 1c3 4 5 13-2 14l-14-4z"/><path fill="#1a1714" d="m1500 1389 20 5q-10 20-17 40c-1 3 2 8 0 12l-2-1q-10-6-21-10l7-5c7-7 15-25 17-34zM1516 1371a8 8 0 1 1 9 13 8 8 0 0 1-9-13"/><path fill="url(#f)" d="m728 1206 19-4q43-10 87-15l4 1q-3-1-7 2c-3 5-1 5-1 9 4 31-5 65-4 96 6 1 8-3 13-2l-15 6q1 5 6 5c7 13-3 40 18 44-6 3-5-2-11-1-9 9-11 87-6 98 5 2 11-2 16-1v1q-51 8-101 21l-15 4-39 12q-25 9-50 21l-19 9-35 19c-24 14-47 35-67 54-9 10-27 28-29 42-10-17-70-143-75-147 0-6-11-27-14-35-5-5-22-42-24-52v-14c5-9 21-26 29-32 4-5 36-29 37-31 5 0 39-24 50-29l15-8 22-11c8-4 13-3 16-11l2 3c4 0 61-22 69-25q54-17 109-29"/><path fill="url(#g)" d="M510 1279q4 2 3 6l4 53c1 8 0 21 3 29h7-1l-11 6 1 2q6 1 10 4l20 52q-3 5-4 9 0 2-3 2l-21 9c-5 19-5 118 2 133l1 1c-9 10-27 28-29 42-10-17-70-143-75-147 0-6-11-27-14-35-5-5-22-42-24-52v-14c5-9 21-26 29-32 4-5 36-29 37-31 5 0 39-24 50-29z"/><path fill="#8b5517" d="M408 1347h1l2-1c6 8 3 49 2 60-1 14-9 34-5 45l-1 1-3-7h-1c-5-5-22-42-24-52v-14c5-9 21-26 29-32"/><path fill="#1a1714" d="M458 1398q24-9 46-22l9 20-14-10-15 7 10 25c22-9 7-7 12-17l3 1c4 3 9 20 10 26l-9-12-13 6 12 26 11-3c11-4 5-13 8-19 6 3 3 11 11 16l-21 9-28 14 6-12-26-52z"/><path fill="url(#h)" d="m728 1206 19-4q43-10 87-15l4 1q-3-1-7 2c-3 5-1 5-1 9 4 31-5 65-4 96 6 1 8-3 13-2l-15 6q1 5 6 5c7 13-3 40 18 44-6 3-5-2-11-1-9 9-11 87-6 98 5 2 11-2 16-1v1q-51 8-101 21l-15 4-1-1-6-2c0-11 5-20 4-33l-2-36q-5-27-3-56c1-5-1-13 2-17l4 14 2 1-8-34-8-3v-1c3-3 12-4 17-6l-1-1q-5 1-10 3 5-23 6-47c0-11-6-26-5-38q1-5 6-7"/><path fill="#070706" d="M732 1296c16-3 29-8 40 8v16c-12 20-21 13-25 17-1 7 1 19 6 24l6 1 2 1c-6 4-18 4-28 9l-1-1v-3l5-3c0-5-5-20-6-25l-8-34-8-3v-1c3-3 12-4 17-6"/><path fill="#eedb94" d="M736 1300c9 0 16 0 20 10 2 5 1 14-2 18-4 2-3 3-7 2-4-3-8-22-11-30"/><path fill="#070706" d="M799 1301c27 0 13 36 23 44l5-2 1 2c-5 11-14 7-21 4-2 0-8 7-10 9-5 2-14-4-18-7v-13l25-16c-3-6-7-18-14-15q-4 7-4 16c-4 2-2 2-6 1q-3-1-3-4c-5-14 13-18 22-19"/><path fill="#e9cf84" d="M804 1328c3 4 3 14-1 17q-4 3-9 3-3-6-2-14z"/><path fill="#1a1714" d="m527 1367 15-6c7-7 23-10 22 6l-1 1q-5 0-10-5-7 2-12 6c-4 7 4 17 6 25l13-6q-1-6 1-9c6 1 10 14 9 20l-2 1-6-6-13 4 11 27 1-1h1l6 1 3-1 3 2-32 14q1-4 4-9l-20-52q-4-4-10-4l-1-2z"/><path fill="#070706" d="M571 1424v-2c14-7 4-10 9-19 5 0 8 13 9 18l-15 5zM661 1317l14 1q9 7 11 17c2 17-20 22-23 27 0 5 2 17 6 21q3 2 7 1l1 1-1 2c-3 2-13 4-17 5q-4 4-9 4c-3-2 4-7 3-12l-5-15-13-37q-5 1-8-2v-2c6-4 27-10 34-11"/><path fill="#e9cf84" d="M650 1324q18-2 21 17 0 7-4 13l-7 4z"/><path fill="#070706" d="M614 1332c2 3 5 11 4 15l-2 1q-3-2-7-7l-16 5 8 25c22-6 8-3 14-14 6 2 9 14 8 20l-2 1q-3-2-5-6l-12 4c1 6 6 26 11 28l15-6 1-4q-1-6 3-11c4 3 6 13 7 17-7 3-41 16-44 16q2-8 0-15l-19-47c0-1-5-1-7-4l42-17z"/><path fill="url(#i)" d="M417 1480c5 4 65 130 75 147 2-14 20-32 29-42 20-19 43-40 67-54 32 37 70 58 116 74l30 10 10 3 62 20q32 12 62 24l55 24q43 19 82 46 12 8 23 18l2 2-1 2h-9l-42-28-59-33c-38-16-134-59-182-64-7-1-24 28-39 34q-42 17-86 35a642 642 0 0 0-338 227c-6 9-12 21-20 28-7 2-12-3-12-7-10-73 12-143 45-207l30-50h-6c-9-3-25 1-34-2q-3-2-2-5l35-4q-9-9-17-21l-34-58-5-16h-5c33-28 85-57 124-79z"/><path fill="url(#j)" d="m704 1605 30 10 10 3 62 20q32 12 62 24l55 24q43 19 82 46 12 8 23 18l2 2-1 2h-9l-42-28-59-33c-38-16-134-59-182-64-7-1-24 28-39 34q-42 17-86 35a642 642 0 0 0-338 227c-6 9-12 21-20 28-7 2-12-3-12-7-10-73 12-143 45-207l30-50h-6c-9-3-25 1-34-2q-3-2-2-5l35-4 27-2q-12 17-23 35l2 1 1 8c2 13 13 25 18 37 8 19 13 33 27 50 4 0 3-1 6 1 2 4 2 2 1 6 58-46 111-76 180-103 33-12 73-26 104-40l-1-1-7 3-9-9c-6-15-7-16-16-29v-2l5-2v-1l11-5 27-9c11-3 34-5 41-11"/><path fill="#e9cf84" d="m314 1711 2 1 1 8c2 13 13 25 18 37 8 19 13 33 27 50 4 0 3-1 6 1 2 4 2 2 1 6l-30 27-15 14-13 8c-8-7-22-40-32-48-9-8-7-8-8-18v-1c3-15 34-71 43-85"/><path fill="url(#k)" d="M251 1941c-6-39 1-110 20-145v1c1 10-1 10 8 18 10 8 24 41 32 48l13-8-42 47z"/><path fill="#7c5d25" d="m704 1605 30 10h-8q-2 4-1 6c1 7-10 18-15 22-8 7-47 25-57 28l-1-1-7 3-9-9c-6-15-7-16-16-29v-2l5-2v-1l11-5 27-9c11-3 34-5 41-11"/><path fill="#252223" d="M919 1693c9 0 55 24 59 33z"/><path fill="#673c20" d="M588 1531c32 37 70 58 116 74-7 6-30 8-41 11l-27 9-11 5c-35 12-112 43-133-3 2-14 20-32 29-42 20-19 43-40 67-54"/><path fill="#c09338" d="m623 1512 19-9q23 17 47 30c31 16 66 24 99 35a1671 1671 0 0 1 204 86q20 11 39 23c13-11 32-21 47-29q87-45 179-76c39-14 81-23 118-43q19-11 39-26c17 7 38 14 52 28v2q-3 3-3 6c-26 30-85 62-123 71l-14 4c-19 8-50 16-71 23l-50 18c-22 12-49 20-71 32-3 2-19 10-22 10-22 15-48 25-69 43l-13 12-2-2q-11-10-23-18-39-27-82-46l-55-24q-30-12-62-24l-62-20-10-3-30-10c-46-16-84-37-116-74z"/><path fill="#e9cf84" d="M1127 1689c7-17 2-23 4-40v-5h-3c4-4 22-11 28-14q85-36 173-60l4 12c1 7 0 22 3 27l4 1-14 4c-19 8-50 16-71 23l-50 18c-22 12-49 20-71 32-3 2-19 10-22 10h-2z"/><path fill="#eedb94" d="M1205 1655zc11-4 9-5 15-15 10-16 17-23 34-11 2 3 1 2 1 6q3-2 12-5c-1 3-9 3-12 8z"/><path fill="url(#l)" d="m588 1531 35-19 17 13q30 21 64 35l39 13-12-1c-4 7-8 28-8 36 7 3 18 5 21 10l-10-3-30-10c-46-16-84-37-116-74"/><path fill="url(#m)" d="M723 1608c0-8 4-29 8-36l12 1 29 9q35 11 71 25l24 9c-6 1-15-4-20-7-1 3 5 38 6 45l17 7-2 1q-30-12-62-24l-62-20c-3-5-14-7-21-10"/><path fill="#97a76b" d="m885 1527 5 3c4 0 3 0 5-2 4-12 0-27-1-39 4-2 23-1 27 1a15 15 0 0 1 5 21q-4 4-7 3l13 20v4h-7c-6-1-13-11-13-16l-1-1-2 1c-1 6 2 9 1 15-8 1-29 3-35 1l-1-11q-6-6-13-1c-2 6 3 9-2 13l-9-1q-4-2-9 1l-2-4 4-6q5 0 9 4c3-9 9-36 17-42 8-1 13 20 14 26z"/><path fill="#eedb94" d="m918 1499-1-4v-1q9 1 10 10l-8 10 13 20v4h-7l-16-22v-1l-2-8q0-6 3-10c5-1 3-1 8 2"/><path fill="#086435" d="M907 1507q0-6 3-10c5-1 3-1 8 2q1 11-9 16z"/><path fill="#c1ba76" d="M897 1537c1-11-2-35 2-43 4-2 2-1 6-1l2 14 2 8v1c-5 6 1 15-1 20q-5 2-11 1"/><path fill="#eedb94" d="M885 1527q1 5 3 9h-10c-4-5 3-8-5-16 2-4-1-3-1-10l2-2 2 1 7 8z"/><path fill="#086435" d="M988 1568q11-10 20 2c10 17 3 59-19 46-15-12-15-35-1-48"/><path fill="#eedb94" d="M989 1616c-15-12-15-35-1-48 3 2 2 0 4 4q-4 20 0 40z"/><path fill="url(#n)" d="M1002 1575q1-5 6-5c10 17 3 59-19 46l3-4q5 3 8-1c5-10 3-25 2-36"/><path fill="#cda653" d="M988 1568q11-10 20 2-4 0-6 5-1-4-7-6c-3 1-1 0-3 3-2-4-1-2-4-4"/><path fill="#c1ba76" d="M1058 1574c3-11 15-13 25-8 19 17 4 50-19 53h-2c13-11 12-9 18-24-20 6-24-2-22-21"/><path fill="#eedb94" d="M1083 1566c19 17 4 50-19 53h-2c13-11 12-9 18-24v-3c-1-11 1-13-2-25z"/><path fill="#086435" d="m1068 1572 4-5h6c3 12 1 14 2 25-15 0-13-8-12-20"/><path fill="#e9cf84" d="M1058 1574c3-11 15-13 25-8l-5 1h-6l-4 5v-4h-2z"/><path fill="#eedb94" d="M1025 1518c3-8 6-25 14-28l3 1 4 12 2 7 5 2q4-1 7-4c0 6 0 8 2 15l3 7-3 1-3 7-4-1h-2l-10 1c-3-6 2-7-1-13q-7-3-14 1l1 12h-18v-1l1-17q-1 9 5 13 6-4 8-15"/><path fill="#97a76b" d="M1039 1509c6 5 2 20 8 26l6 2-10 1c-3-6 2-7-1-13q-7-3-14 1l1 12h-18v-1l1-17q-1 9 5 13 6-4 8-15c6-2 8 1 13-2q2-3 1-7"/><path fill="#6e8f5e" d="M1025 1518c3-8 6-25 14-28l3 1 4 12q-5-3-8-9-3 6-2 10l3 5q1 4-1 7c-5 3-7 0-13 2"/><path fill="#35703b" d="m1048 1510 5 2q4-1 7-4c0 6 0 8 2 15l3 7-3 1-3 7-4-1h1c1-3-7-23-8-27"/><path fill="#c1ba76" d="M960 1490h1c12 1 23-3 30 7 1 10-3 12-9 18 5 5 6 7 9 14l2 10c-15-5-10-14-21-23q-2 11 1 21l-13 1-2-1c9-16-1-36 2-47"/><path fill="#eedb94" d="m979 1495 2-1q5 2 10 3c1 10-3 12-9 18 5 5 6 7 9 14l2 10c-15-5-10-14-21-23l1-2 4-1c7-6 5-10 2-18"/><path fill="#086435" d="M973 1514c-3-5-3-14 0-19h6c3 8 5 12-2 18z"/><path fill="#eedb94" d="M1040 1564h1c2 2 1 39 1 46 3 4 4 3 7 6v-2l1 1c-4 2-21 1-26 0l2-3 4-1c3-6 1-28 1-36l-1-1h-7c2-4 12-7 17-10"/><path fill="#e9cf84" d="M1001 1490h13c-2 11-2 18-2 30l-1 17v1l-18 1-2-10q3 4 8 4l2-6 1-7z"/><path fill="#6e8f5e" d="M991 1529q3 4 8 4l2-6 1-7c0 4-1 12 1 16 4 2 4 1 8 1v1l-18 1z"/><path fill="#e9cf84" d="M1102 1489h14l-3 28q-1 18 15 16c2 3 2 1 1 4-33 9-24-27-27-48"/><path fill="#c1ba76" d="M1060 1508c8-28 43-23 36-8l-2 1c-4-4-5-9-11-10-9 1-11 15-12 23v5q0 7 4 11l-3 6-7-6-3-7c-2-7-2-9-2-15"/><path fill="#eedb94" d="M1070 1496q0 12 1 23 0 7 4 11l-3 6-7-6-3-7c3-13 0-13 8-27"/><path fill="#c1ba76" d="M950 1490q0 6-1 13-2 16 1 34h-13c2-12 1-35 0-47zM956 1591l1-18-2-1-14 3-1-1c5-28 51-3 21 22l1-6-2-3z"/><path fill="#eedb94" d="M960 1587zl1-6c1-4-3-8 1-11l4 3c2 8 0 11-4 18z"/><path fill="#c1ba76" d="M1215 1502q0-7 6-10 3 0 4 3v16l1 4q-2 9 0 18v4h-12c2-10 1-25 1-35"/><path fill="#6e8f5e" d="M1128 1533c12-13-8-46 11-44 2 7 2 34-2 41l-8 7c1-3 1-1-1-4"/><path fill="#e9cf84" d="m1183 1491 3 4q-6 8-5 17c-2 11 3 17 0 23-9-7-12-11-11-23q2-13 13-21M815 1503q5-3 11-3c-3 10-4 25 5 33l-4 4c-15-10-15-18-12-34"/><path fill="#eedb94" d="M955 1608c4-1 13-4 16-3q2 5 1 12h-35l6-9z"/><path fill="#97a76b" d="m830 1488 14 1c7 0 7 7 4 11-8-1-13-15-22 0q-6 0-11 3 4-10 15-15M1075 1530c10 7 11 1 20-3l1 1c-1 4 0 4-3 8q-4-1-7 2l2 10q-3 4-9 3 0-5 1-11l-8-4z"/><path fill="#c1ba76" d="M1080 1540c5 1 5 4 8 8q-3 4-9 3 0-5 1-11"/><path fill="#97a76b" d="M1181 1512c3 17 4 27 24 16l2 1v5c-7 5-20 7-26 1 3-6-2-12 0-23"/><path fill="#9cae5f" d="m1213 1489 30 1-1 13c-7-8-6-7-17-8q-1-3-4-3-6 3-6 10z"/><path fill="#c1ba76" d="M1160 1515q5-1 6 3c0 8-6 7-12 7q-5 1-8-3c2-7 8-6 14-7M960 1587l2 3-1 6-8 10 2 2h-12q8-7 13-17z"/><path fill="#97a76b" d="m1225 1511 1-1 11-3q4 6-1 13-4-2-10-5zM1226 1533c11 1 10-3 18-10l-1 14h-17z"/><path fill="#9cae5f" d="M1183 1491q10-3 22-1l-6 2q-7 1-13 3z"/><path fill="#97a76b" d="m1205 1490 2 8-2 2c-3 0-1 1-4-1l-2-7z"/><path fill="#9cae5f" d="m831 1533 8 2 2 4-14-2z"/><path fill="#8b5517" d="M721 391a542 542 0 0 0 258-73l43-26h9l3 1h7c10 6 35 18 43 26a530 530 0 0 0 263 71c-4-9-10-18-6-28 9 13 23 30 37 39a1039 1039 0 0 1 79 5v-11q5 6 6 13c4 0 18 2 20 1l3 4 3 1 7-4c7 6 37 13 49 17h1v-4q1 4 3 7c7 1 49 23 53 22 3 7 18 11 27 22q-9 17-19 31c-5 8-22 40-20 47-7 4-5 8-3 15h-3q-4 2-3 8a560 560 0 0 0-15 78c0 12-7 65-4 71a707 707 0 0 0 0 129c-2 6 0 45 3 50-2 5 3 106 4 120 1 11 1 74 4 80-2 6-3 19 0 24-1 4-2 34 0 37-3 13-1 49-2 64-2 5-2 23-2 29l1 2c-4 4-5 23-5 30-10-7-35-14-38-21-3 1-13-5-17-6q6-107 2-215l-6-111-1-21c-2-9-2-37-3-48q-5-75 0-151a576 576 0 0 1 23-153l3-13 11-31c3-7 9-20 10-27-2-4-14-10-19-12-71-28-148-20-223-27-95-8-195-41-276-92-11 5-28 17-42 25a607 607 0 0 1-240 68c-70 5-139-2-206 21-9 4-23 7-30 14-2 6 5 18 8 25h-1c-12-22-16-26 9-35q34-13 70-19l31-3c0-6-1-4 2-9-8-5-74 9-85 13l-35 12h-1c34-15 73-24 109-26 15-2 34-1 48-3l-16-1h20l1-2c-5-9-2-25-5-37-12 0-18 3-30 0 12-2 35-1 49-2l18-15c6-6 18-17 21-25 4-11-8-10-15-10l2-1 6-1v-2l-1-2-17-4c13-1 35-3 36 14 0 11-11 25-16 35"/><path fill="#cda653" d="M721 391a542 542 0 0 0 258-73l43-26h9l3 1h7c10 6 35 18 43 26l2 5-1 2h-5l34 18h-2c-5 0-5-2-11-1q-4 2-3 8c2 10-9 20-5 28 10 6 32 12 38 19-23-8-54-25-76-37l-26-16-39 25a637 637 0 0 1-338 73h20l1-2c-5-9-2-25-5-37-12 0-18 3-30 0 12-2 35-1 49-2l18-15c6-6 18-17 21-25 4-11-8-10-15-10l2-1 6-1v-2l-1-2-17-4c13-1 35-3 36 14 0 11-11 25-16 35"/><path fill="url(#o)" d="m687 402 29-1q48-3 95-11v1c-5 2-25 6-30 5 2 8 5 35 9 38 8 0 15-3 22-1a851 851 0 0 1-160 10h20l1-2c-5-9-2-25-5-37-12 0-18 3-30 0 12-2 35-1 49-2"/><path fill="#070706" d="M721 391a542 542 0 0 0 258-73l43-26h9c-8 10-13 12-24 19q-69 43-149 67c-10 3-41 9-47 12q-47 8-95 11l-29 1 18-15c6-6 18-17 21-25 4-11-8-10-15-10l2-1 6-1v-2l-1-2-17-4c13-1 35-3 36 14 0 11-11 25-16 35"/><path fill="#1a1714" d="M1034 293h7c10 6 35 18 43 26l2 5-1 2h-5c-8-4-45-25-46-33"/><path fill="url(#p)" d="M1084 319a530 530 0 0 0 263 71c-4-9-10-18-6-28 9 13 23 30 37 39-5 1-35-1-42-1h1c12 4 24-1 28 6v35c-6 3-66-5-78-3-32-1-127-26-156-40-6-7-28-13-38-19-4-8 7-18 5-28q-1-5 3-8c6-1 6 1 11 1h2l-34-18h5l1-2z"/><path fill="#070706" d="M1084 319a530 530 0 0 0 263 71c-4-9-10-18-6-28 9 13 23 30 37 39-5 1-35-1-42-1-4-2-39-3-46-4q-23-2-44-8-68-13-130-43l-2-1-34-18h5l1-2z"/><path fill="#cda653" d="M1502 815c4-4 12-12 12-17h2q0 53 4 108l1-9c2 9 2 26 2 36l3 76q3 38 4 77 3 78-1 154l-2 28c-3 1-13-5-17-6q6-107 2-215l-6-111-1-21c2-4-3-88-3-100"/><path fill="#eedb94" d="m1505 674 3-6 12 8v1l1 10c-7 64-3 145 0 210l-1 9q-3-55-4-108h-2c0 5-8 13-12 17 0 12 5 96 3 100-2-9-2-37-3-48q-5-75 0-151c0-11 1-32 3-42"/><path fill="url(#q)" d="M1457 395q5 6 6 13c4 0 18 2 20 1l3 4c-11-4-57-9-68-8l-1 1q-1 10 1 22l-3 15c6 3 39 1 48 5 2 1 10-1 15 1-22 1-47-4-71-4q-44-1-89-4c-9 0-23-1-31-3 12-2 72 6 78 3v-35c-4-7-16-2-28-6h-1c7 0 37 2 42 1a1039 1039 0 0 1 79 5z"/><path fill="#cda653" d="M1524 563q0 8-2 16l13 8q-8 41-12 84l-2 16-1-10v-1l-12-8-3 6c0-26 12-86 19-111"/><path fill="url(#r)" d="m605 406 33-2c12 3 18 0 30 0 3 12 0 28 5 37l-1 2h-20l16 1c-14 2-33 1-48 3-36 2-75 11-109 26h1l35-12c11-4 77-18 85-13-3 5-2 3-2 9l-31 3q-37 6-70 19c-25 9-21 13-9 35h1c16 38 32 116 34 157 7 92 5 160-1 252l-5 81q-3 81-4 161c0 28 1 65 3 92-3 8-8 7-16 11l-22 11-15 8c-2-8-1-23-6-28h1c1-4-2-26-2-31-2-15-2-51-2-67 1-5 0-40-1-47l-22-47-10-25a611 611 0 0 1-37-282c1-17 5-38 7-55l10-42q14-52 37-102l2-6-2-5q-9-29-25-52-10-11-18-24l27-19c5-4 5-3 6-8v2l2 1 18-10c5-4 32-12 35-15l1 1c10-4 47-12 53-16l4 2q5 0 10-4c5 1 17-1 22-2m-142 661 22 47q4-12 1-22l3-66c-18 9-19 5-24-13-9-18-10-51-3-69q11-20 28-38l6-8c0-8 2-33 0-39a658 658 0 0 0 2-137 625 625 0 0 0-7-88c-1-8-7-46-11-50l-1-9-1-1q-4 6-6 12l-3 2c2-7 10-24 6-27h-5q-23 50-37 102l-10 42c-2 17-6 38-7 55a805 805 0 0 0 2 139c6 54 17 92 35 143z"/><path fill="#070706" d="M470 561h5c4 3-4 20-6 27l3-2q1-6 6-12l1 1 1 9c4 4 10 42 11 50l2 18a625 625 0 0 1 6 102c1 17 1 89-3 105 2 6 0 31 0 39l-6 8q-17 18-28 38c-7 18-6 51 3 69 5 18 6 22 24 13l-3 66q3 10-1 22l-22-47-10-25a611 611 0 0 1-37-282c1-17 5-38 7-55l10-42q14-52 37-102m-18 381c10-24 26-26 36-58-13 9-32 18-47 21l2 12c3 15 4 21 5 36zm-16-182-1 33 2 1c9-9 48-39 53-47v-2h-2c-21 7-29 12-52 15m20-99 13-6 9-6q-9-1-17-6z"/><path fill="#eedb94" d="M499 754c1 17 1 89-3 105-6 7-45 44-55 32-8-9-8-35-8-47-2-50 34-60 64-89z"/><path fill="#e9cf84" d="M470 561h5c4 3-4 20-6 27l-22 65c-24 85-30 178-15 265l4 24c3 33 23 84 34 115l16 35q3 10-1 22l-22-47-10-25a611 611 0 0 1-37-282c1-17 5-38 7-55l10-42q14-52 37-102"/><path fill="#eedb94" d="M493 652c2 10 5 58 5 70-16 12-37 24-57 27-3-13-4-33-1-46 7-27 31-38 53-51M480 584c4 4 10 42 11 50q-9 3-19 3c-3-21-3-34 8-53"/><path fill="#3e3c39" d="m479 1039 4 2-2 9-5-4c0-4 0-3 3-7"/><path fill="#e9cf84" d="M541 697c4-2 11-5 13-8l-1-20 2 2c7 92 5 160-1 252-3-9 0-17 0-25q-7-3-12 0c-6 6-1 16-3 25a3657 3657 0 0 0 3-194c-1-17-3-37-2-52z"/><path fill="#eedb94" d="M490 906c5 3 4 12 3 18l-4 98-14 6c-3-4-6-12-10-15-9-18-10-51-3-69q11-20 28-38"/><path fill="url(#s)" d="M532 1268c-1-30-5-68-1-97l-2 5-1-1c1-16-4-11 9-28q3 0 6-4l1 1q-2 9 1 20v1c0 28 1 65 3 92-3 8-8 7-16 11"/><path fill="#8b5517" d="M550 1260c5-7 50-23 60-27q157-53 322-61c13-1 34-4 46-2h87c126 0 256 21 377 62 11 4 38 13 47 21-53-15-101-35-156-46a1299 1299 0 0 0-267-34l-53-1h-19l-30 2q-65 5-130 13-44 5-87 15l-19 4q-55 12-109 29c-8 3-65 25-69 25"/><path fill="url(#t)" d="M829 1010q14-7 30-12c57-21 135-19 171 38 15-20 27-29 50-40 43-18 83-9 124 4l21 7c45 19 94 28 142 15l-6 6q8-3 15-2c6 3 4 7 4 14h-5c-3-2-2-1-3-5v28c3 6 0 4 2 8h5v-5l1-2 1 25 1 16q5-1 8 1c5 8 5 25 5 34q-210 1-420-1H666c0-12-2-22 7-30l5-7v-69l-1-3-1-11 37 6c43 6 76-1 116-15"/><path fill="#086435" d="M829 1010q14-7 30-12c57-21 135-19 171 38 15-20 27-29 50-40 43-18 83-9 124 4l21 7c45 19 94 28 142 15l-6 6q8-3 15-2c6 3 4 7 4 14h-5c-3-2-2-1-3-5v32c-1 7-4 6-10 7q7-2 9 4c-60 11-97 5-153-17-15-5-36-13-52-15-39-7-85-4-114 27l-5-3q-5 4-11 2-4-11-1-23l1-4-2-6-4 3-5 4c-3-6-12-15-17-20l1-8c-41-31-89-32-137-20l-32 11-2 1z"/><path fill="#eedb94" d="M829 1010q14-7 30-12c57-21 135-19 171 38 15-20 27-29 50-40 43-18 83-9 124 4l21 7c45 19 94 28 142 15l-6 6q8-3 15-2c6 3 4 7 4 14h-5c-3-2-2-1-3-5l-35 5h-31q-31-3-61-12l-26-10q-37-15-78-19c-30-2-65 8-88 28l-17 18-2-6-4 3-5 4c-3-6-12-15-17-20l1-8c-41-31-89-32-137-20l-32 11-2 1z"/><path fill="#8d691e" d="M829 1010q14-7 30-12c57-21 135-19 171 38 15-20 27-29 50-40 43-18 83-9 124 4l8 7c-45-15-80-23-128-8-17 8-42 22-50 40l-4 3-5 4c-3-6-12-15-17-20l1-8c-41-31-89-32-137-20l-32 11-2 1z"/><path fill="#eedb94" d="M1009 1018q12 11 21 24l-5 4c-3-6-12-15-17-20z"/><path fill="#7c5d25" d="m1204 1000 21 7c45 19 94 28 142 15l-6 6c-20 6-45 6-66 4-28-3-56-15-83-25z"/><path fill="#c1ba76" d="M1183 1038c8 2 40 12 48 16l5 6a211 211 0 0 0 106 16l20-2q7-2 9 4c-60 11-97 5-153-17-15-5-36-13-52-15l3-1-16-3-1-1c8-4 21 3 29 1l-4-1z"/><path fill="#8d691e" d="M1183 1038c8 2 40 12 48 16l5 6c-17-5-37-15-55-18l-4-1z"/><path fill="#97a76b" d="M1097 1039c32-5 48-6 80 2l4 1c-8 2-21-5-29-1l1 1 16 3-3 1c-39-7-85-4-114 27l-5-3c17-18 28-22 50-31"/><path fill="url(#u)" d="M1080 1040c32-14 70-13 103-2l-6 3c-32-8-48-7-80-2q-8 2-17 1"/><path fill="#8b5517" d="M1313 1072c23 0 36-1 59-5-1 7-4 6-10 7l-20 2q-30 4-58-2c8-1 22 1 29-2"/><path fill="#7c5d25" d="M1231 1054c32 11 48 16 82 18-7 3-21 1-29 2-12 0-37-9-48-14zM1080 1040q9 1 17-1c-22 9-33 13-50 31q-5 4-11 2-4-11-1-23l2 25q10-12 22-22c4-4 13-7 17-11z"/><path fill="#35703b" d="M1053 1027q-4 8-11 15l-1 24c9-9 21-22 34-25h1c-4 4-13 7-17 11q-12 10-22 22l-2-25 1-4z"/><path fill="#1e774c" d="m838 1010 2-1 32-11c48-12 96-11 137 20l-1 8c5 5 14 14 17 20 1 10 2 16 0 26v2h-2l-7-2-12-12q-15-12-34-19l-13-3q-42-8-81 4c-37 12-86 35-123 34-7-4-21-1-27-5-10-1-29-1-37-7q-3-4-3-9v-18q-3 3-5 2c-2-3-1-1-1-5l-2-1-1-3-1-11 37 6c43 6 76-1 116-15z"/><path fill="url(#v)" d="m838 1010 2-1 32-11c48-12 96-11 137 20l-1 8c-60-47-119-27-184-2q-29 11-60 16h-44c-5-1-32-6-34-5v2q-3 3-5 2c-2-3-1-1-1-5l-2-1-1-3-1-11 37 6c43 6 76-1 116-15z"/><path fill="url(#w)" d="M829 1010h9c-55 26-99 27-156 16q-4-1-5 4l-1-11 37 6c43 6 76-1 116-15"/><path fill="#7c5d25" d="M726 1071h33c43-4 79-24 121-34l-4 5c-37 12-86 35-123 34-7-4-21-1-27-5"/><path fill="#8d691e" d="M880 1037c29-10 67-12 95 1l-5 3-13-3q-42-8-81 4z"/><path fill="#8d691e" d="M975 1038q15 5 27 15c7 5 19 18 23 19v2h-2l-7-2-12-12q-15-12-34-19z"/><path fill="#1e774c" d="M876 1042a167 167 0 0 1 94-1q18 7 34 19l12 12-3 2v4q0 3-2 3-15 6-25 17l-8 7c-22-23-42-31-75-25l-2 4c-28 5-65 28-93 25l-27 3q-47 1-94-1l-1-31-1-3c4-2 12 1 16 1l5-2-18-3 1-1-2-1c-2-2-1-12-1-16q0 5 3 9c8 6 27 6 37 7 6 4 20 1 27 5 37 1 86-22 123-34"/><path fill="url(#x)" d="M876 1042q39-12 81-4l3 3-7-1-1 2h3l1 2c-77-13-112 27-179 37q-28 5-57 2c-5 0-30-5-33-4l-1 1-1-3c4-2 12 1 16 1l5-2-18-3 1-1-2-1c-2-2-1-12-1-16q0 5 3 9c8 6 27 6 37 7 6 4 20 1 27 5 37 1 86-22 123-34"/><path fill="#8d691e" d="M686 1055q0 5 3 9c8 6 27 6 37 7 6 4 20 1 27 5-16 3-48-1-64-4l-2-1c-2-2-1-12-1-16"/><path fill="#8b5517" d="M808 1109q15-3 30-8c20-7 44-18 65-21l-2 4c-28 5-65 28-93 25"/><path fill="#c1ba76" d="m957 1038 13 3q18 7 34 19 3 3 2 7l-5-2-12-7q-16-9-33-14l-1-2h-3l1-2 7 1z"/><path fill="#a1944e" d="m1004 1060 12 12-3 2v3l-12-12 5 2q1-3-2-7"/><path fill="#086435" d="M1052 1073c29-31 75-34 114-27 16 2 37 10 52 15 56 22 93 28 153 17 2 6 0 27 0 34q-36 2-70 1c-29 0-51-4-79-12-29-11-58-26-91-20q-26 1-41 22l-3 2c-4-1-15-14-21-18l-17-9z"/><path fill="#8b5517" d="M1131 1081c33-6 62 9 91 20h-7c-16-2-31-11-47-15-9-3-13-3-22-4-17 2-47 11-55 26l-1-5q15-21 41-22M903 1080c33-6 53 2 75 25l8-7-3 10-7 7c-20-31-41-32-75-31z"/><path fill="url(#y)" d="m678 1033 2 1c0 4-1 2 1 5q3 1 5-2v18c0 4-1 14 1 16l2 1-1 1-9-2-1 31z"/><path fill="#8b5517" d="m1041 1082 8-4 17 9c6 4 17 17 21 18l3-2 1 5q-1 5-4 7-4-4-9-11a93 93 0 0 0-37-22M1013 1078q3 3 6 3l1 2c-1 2-11 5-14 7q-14 8-23 18l3-10q10-11 25-17 2 0 2-3"/><path fill="url(#z)" d="M1145 594c10-4 23-26 28-25 4 8 0 39-2 49 0 4-10 5-11 15l1-1 20 18-19 18-1 2 11 9c5-6 12-16 19-18 7 1 19 15 24 21q-14 16-30 31l-41-41-19-19c-9 6-20 19-28 27l-45 44a3575 3575 0 0 1 69 68l6 4c24-7 69-13 92-2 29 15 35 43 20 71l-3 6c6 12 10 20 6 35-3 10-14 23-25 24-17 2-21 1-35-7-18 16-42 20-61 3q-7-5-11-12c-19-24-8-68-3-96-6-8-18-19-25-27-14-12-36-35-49-50l-73 76c5 30 13 72-6 99q-13 17-34 20-19 2-33-9l-5-4-8 5-2 1c-13 5-20 4-32-2-23-14-22-35-10-56q-10-14-12-30c-1-25 17-45 40-51 11-2 27-3 38-1 13 0 30 4 42 6l28-25c13-16 35-32 47-47l-36-36c-1-4-1-3-4-6-3-11-8-37-11-44 22 22 51 48 71 70 4-6 46-47 54-54 17-16 41-45 58-59"/><path fill="url(#A)" d="M1127 796c24-7 69-13 92-2 29 15 35 43 20 71l-3 6c6 12 10 20 6 35-3 10-14 23-25 24-17 2-21 1-35-7-18 16-42 20-61 3 6 2 14 8 19 6l1-22q-8-3-11-10l-4-8c-4-7-3-43 1-49h3l8 6c3-6 4-50-3-52l-4 1-3-1z"/><path fill="#8b5517" d="M1219 794c29 15 35 43 20 71l-3 6c6 12 10 20 6 35-3 10-14 23-25 24l11-8c-2-10-5-13-5-23l-3 2 1-6c8-6 6-43-1-49 1-10 1-12-3-20 7-15 0-21 2-32"/><path fill="#1e774c" d="M1152 819c21-6 48-10 65 7 4 8 4 10 3 20-6 11-14 11-25 14-17-18-27-25-43-41M1126 892c-4-7-3-43 1-49h3c11 15 27 28 39 42q0 11-6 18c-12 12-22 6-33-3z"/><path fill="#086435" d="M1126 892c5 2 13 15 20 14l17-3c-12 12-22 6-33-3z"/><path fill="#1e774c" d="m1220 901-6 6c-4 2-14 3-16-3-6-17 11-33 23-9z"/><path fill="#c09338" d="M830 871q-10-14-12-30c-1-25 17-45 40-51 11-2 27-3 38-1-12 1-57-2-33 22 2 2 13-1 19 1l31 6c-8 10-22 20-31 30q-3 8-10 13h-1c-9-1-14-5-20-1q-2 6-2 12-3 6 2 12c4 0 4-4 10-2 7 3 15 15 10 22-6 9-10 8-8 22 11-6 7 0 15-2l2-4 2 3-8 5-2 1c-13 5-20 4-32-2-23-14-22-35-10-56"/><path fill="#1e774c" d="m882 812 31 6c-8 10-22 20-31 30l-12 11q-10 0-19-7c-15-13-2-32 14-37z"/><path fill="#97a76b" d="M840 927c5-1 29 0 34 1l-2 1c-13 5-20 4-32-2"/><path fill="#1e774c" d="M854 884a13 13 0 1 1 6 26 13 13 0 0 1-6-26"/><path fill="url(#B)" d="M962 637c22 22 51 48 71 70l-1 3-3-3c-8 3-10 15-13 22-4 8-2 26-8 31h-2c-3-8-8-7-14-13-6 6-19 21-26 23 13-16 35-32 47-47l-36-36c-1-4-1-3-4-6-3-11-8-37-11-44"/><path fill="url(#C)" d="M1172 679c5-6 12-16 19-18 7 1 19 15 24 21q-14 16-30 31l-41-41h1c6 4 21 20 27 26l-3-18-9-7c0 3 5 8 6 13-3-2-8-9-10-12q1-4 6-9v3l-1 2z"/><path fill="#eedb94" d="M1082 791c6 2 9 10 15 12 0-3-1-2 2-5 4 0 2-1 6 1 5 5 4 54 3 65 0 7 3 45 2 50-19-24-8-68-3-96-6-8-18-19-25-27"/><path fill="#c09338" d="m1160 633 1-1 20 18-19 18v-3l7-7c5-25-7-15-9-25"/><path fill="#eedb94" d="m1121 791-6 11v-2q3-6 1-11c-3-2-2-1-6-1-3-2 0-4-3-8l-17-17v-1z"/><path fill="#1e774c" d="M911 867c6-5 21-24 26-25l2 3v1c0 25 10 56-24 64-17-4-17-9-19-26 3-4 13-13 15-17"/><path fill="#eedb94" d="M911 867zc0-3 18-16 20-24-2-6-4-20 1-24 9 4 4 11 5 19h1c5-9 1-24 4-34l1-1v3c5 14-3 27-2 40l-1-1-2-3c-5 1-20 20-26 25"/><path fill="url(#D)" d="m869 539 20 21 39 42 34 35c3 7 8 33 11 44 3 3 3 2 4 6l-35-33q-8 11-19 20c-3 5-36 36-42 40l-29-29c6-8 16-19 24-25q9 12 21 22l8-11-20-18 20-21-11-11-20 20c-4-6-13-15-18-20l-10 10 19 19q-10 14-24 24l-30-28c17-20 41-42 60-61q-13-11-23-24z"/><path fill="url(#E)" d="m928 602 34 35c3 7 8 33 11 44 3 3 3 2 4 6l-35-33q-8 11-19 20c-6-10-3-61 5-72"/><path fill="#1e774c" d="m1033 476 16 1c8 6 12 9 15 18v3l5 1 3-5c23-44 71 10 38 24l-2-6q-6 5-8 14l-4 1q-3 5-7 9l-6 1-12 1q0 4 2 7l8 2q-11-1-21 5l-1 1 5 7-10-8c-8 0-25 2-30-1h-1l-11-4h-5c-2-5-2-5 0-10l-8 1q-3 0-3-3l-2 2-5-1-4-8-7-1q0-6-3-11l-8 5-4-1 2-3c-23-22 19-64 43-24q1 4 3 7l7-2-2-1c4-11 8-15 17-21"/><path fill="#1e774c" d="M965 517c-23-22 19-64 43-24q1 4 3 7h-1l-2 6q10 4 19 10l-1 2q-7 6-11 16-3 3-7 4l-1-1-8 1q-3 0-3-3l-2 2-5-1-4-8-7-1q0-6-3-11l-8 5-4-1z"/><path fill="#1e774c" d="M1008 493q1 4 3 7h-1l-2 6q10 4 19 10l-1 2q-7 6-11 16-3 3-7 4l-1-1-8 1q-3 0-3-3l-2 2-5-1-4-8c-1-10 3-24 12-28l3-4z"/><path fill="#c1ba76" d="M1008 493q1 4 3 7h-1l-2 6c-17 6-19 13-12 29l-2 2-5-1-4-8c-1-10 3-24 12-28l3-4z"/><path fill="#638053" d="M1008 493q1 4 3 7h-1q-6-2-13 0l3-4z"/><path fill="#c1ba76" d="M965 517c-23-22 19-64 43-24l-8 3c-11-13-28-16-33 5-1 4 4 9 7 13l1 2-8 5-4-1z"/><path fill="#638053" d="m974 514 1 2-8 5-4-1 2-3z"/><path fill="#1e774c" d="M1026 518q13-3 24-2 10 8 15 18 4 12-8 17h-2l-1 1c-8 0-25 2-30-1h-1l-11-4h-5c-2-5-2-5 0-10l1 1q4 0 7-4 4-10 11-16"/><path fill="url(#F)" d="M1026 518q13-3 24-2 10 8 15 18 4 12-8 17h-2c3-11 3-24-12-27-9-3-16 4-21 11l2 16h-1l-11-4h-5c-2-5-2-5 0-10l1 1q4 0 7-4 4-10 11-16"/><path fill="#35703b" d="m1015 534-3 13h-5c-2-5-2-5 0-10l1 1q4 0 7-4"/><path fill="#1e774c" d="M1072 494c23-44 71 10 38 24l-2-6q-6 5-8 14l-4 1c1-16-10-30-27-28z"/><path fill="#c1ba76" d="M1072 494c23-44 71 10 38 24l-2-6 1-1v-2c3-5 4-14 2-18-7-11-26-3-34 3z"/><path fill="#c1ba76" d="M1069 499c17-2 28 12 27 28q-3 5-7 9l-6 1q15-28-16-31-6 6-13 9l-2-2 2 1-1-2q3-9 11-14zM1033 476l16 1c8 6 12 9 15 18-12 2-10-11-25-10-12 0-13 14-23 12 4-11 8-15 17-21M1018 498q10 6 9 18-9-7-19-10l2-6h1zM1262 674c13-1 92-3 99 2 4 4 3 46 2 53q0 4-2 8c-13 5-28 0-35 3v7c-7-2-19-1-27 0v-9c-7 1-27 3-33 0-7-9-5-51-4-64"/><path fill="#e9cf84" d="M1299 738c6 0 22-2 27 2v7c-7-2-19-1-27 0z"/><path fill="#086435" d="M1272 682h83c0 7 1 45-2 49h-3l-36 1q-21 1-44-1l1-47z"/><path fill="url(#G)" d="M1198 538q12 10 22 22l-23 24c13 12 48 44 58 58q-14 17-30 30l-22-21q9-12 19-22-2-6-7-9c-9 0-17 13-24 19l-19-18-11 11-1 1c1-10 11-11 11-15 2-10 6-41 2-49-5-1-18 21-28 25 13-15 39-44 53-56"/><path fill="#c1ba76" d="M714 646v-2q-1-4 1-7c9-2 25-1 34 0q3 15 1 29v33l-1 15v9c-4 2-28 0-34 0v-15z"/><path fill="#e9cf84" d="M749 699zl-1 15c-7-4-11 0-18 1l-4-6 1-1 5 1 2-7 13 1z"/><path fill="#638053" d="m735 702 13 1c-3 7-8 5-15 6z"/><path fill="#eedb94" d="m746 690 2 1 1 8-1 4-13-1c0-8 2-8 8-12z"/><path fill="#638053" d="m732 656 3-8h6c7 5 5-3 6 8zM716 708q2-9 10-5 3 2 2 5l-1 1zM743 690l-9-1-1-2q5-5 12-2l1 5z"/><path fill="#97a76b" d="M749 637q3 15 1 29 2-6-3-10c-1-11 1-3-6-8h6q2-5 2-11"/><path fill="#6e8f5e" d="M733 666h12c3 3 2 2 2 7q-6 1-13-1zM718 648c6 0 6-1 10 2l1 4q-5 4-11 1zM720 667q4 0 7 2v4l-8-1c-1-3-1-1 1-5"/><path fill="#638053" d="M721 685q4 0 7 2v2l-3 1q-4 0-8-2z"/><path fill="#8d691e" d="M1299 747c8-1 20-2 27 0 4 5 16 2 22 4 17 0 17 0 19 16h-83l-27 1c1-9 1-12 8-17 8-2 31 1 34-4"/><path fill="#eedb94" d="M1348 751c17 0 17 0 19 16h-37c1-5 13-13 18-16M1265 751c10 1 19 5 19 16l-27 1c1-9 1-12 8-17"/><path fill="#a1944e" d="m684 739 6 1q4 0 7 2 3 5 2 10c6 6 25 2 33 2 7 0 29 3 34-1h14c4 3 14 2 21 4q2 8-6 8-61 3-123 1-4 1-7-2c-2-6 4-7 8-8q5 0 10-2z"/><path fill="#086435" d="m684 739 6 1q4 0 7 2 3 5 2 10c6 6 25 2 33 2 7 0 29 3 34-1h14c4 3 14 2 21 4h-26l-50-1h-52q5 0 10-2z"/><path fill="#cda653" d="m684 739 6 1q4 0 7 2 3 5 2 10l-16 2z"/><path fill="#eedb94" d="M676 660h27v64h-26l-1-14v-50"/><path fill="#c1ba76" d="m676 707 26-1 1-1v19h-26l-1-14z"/><path fill="#638053" d="m676 707 26-1v3c-4 3-21 2-26 1z"/><path fill="#eedb94" d="M676 660h27v12h-2l-6-1h-7q-7 0-12 6z"/><path fill="#c1ba76" d="m676 692 2 1 1 2q7 1 14 1c5 0 5 1 9-2l1-1v12l-1 1-26 1z"/><path fill="#6e8f5e" d="M688 671h7l-4 8-1 1q-8-1-14 2v-5q4-6 12-6"/><path fill="#c1ba76" d="M688 671h7l-4 8-1 1q-2-5-2-9"/><path fill="#6e8f5e" d="m695 671 6 1h2v10l-2-1-10-2z"/><path fill="#c1ba76" d="M701 672h2v10l-2-1z"/><path fill="#6e8f5e" d="M678 693c4-7 8-2 13-2l2 5q-7 0-14-1z"/><path fill="#638053" d="M691 691c5-1 4-2 8-1l3 4c-4 3-4 2-9 2z"/><path fill="#6e8f5e" d="M761 663v-1c4-3 19-1 25-1 2 5 1 38 1 44l-1 19h-24c-2-9-1-32-1-42v-19"/><path fill="#97a76b" d="M761 682q-1 5 2 7h2l-1 8q11-2 21 1 2 4 1 7h1l-1 19h-24c-2-9-1-32-1-42"/><path fill="#c1ba76" d="M762 724q-1-7 1-13l6 1 2-4q4 1 5 4l10-1v13z"/><path fill="#eedb94" d="M786 705c-6 0-19 1-24-2v-5l2-1q11-2 21 1 2 4 1 7"/><path fill="#e9cf84" d="M761 663v-1c4-3 19-1 25-1v11c-6 1-7-2-11 0l1 2h-4l-2-3v8l-5 1h-4z"/><path fill="#638053" d="M761 663q0 5 3 8h6v8l-5 1h-4z"/><path fill="#c1ba76" d="M761 663q0 5 3 8l1 9h-4z"/><path fill="#eedb94" d="m770 679 6 1q5-1 10 2 2 4-2 7l-7-1-3 5h-2l-2-4h-7q-2-2-2-7v-2h4z"/><path fill="#6a6834" d="M1023 551zc5 3 22 1 30 1l10 8c8 6 22 19 13 30h-2c-6-5-7-15-13-20-15-13-42-10-50 10q-1 7-7 9c-14-14 13-28 19-35zM1083 537l6-1c9 12 25 16 19 35l-4 2-2-1-4-15q-6-9-17-10l-8-2q-3-3-2-7z"/><path fill="#a1944e" d="M1071 538c15 0 22 2 30 16l-3 3q-6-9-17-10l-8-2q-3-3-2-7"/><path fill="#7c5d25" d="M1101 554c4 3 6 12 7 17l-4 2-2-1-4-15zM996 535q0 3 3 3l8-1c-2 5-2 5 0 10-10 0-14 0-22 7-2 6-4 16-9 19l-2-1c-10-11 8-26 16-33l-1-3 5 1z"/><path fill="#a1944e" d="m999 538 8-1c-2 5-2 5 0 10-10 0-14 0-22 7-4-8 8-12 14-16"/><path fill="#cda653" d="m1367 1022 15-4c-2 27 0 46-1 71l-1-25-1 2v5h-5c-2-4 1-2-2-8v-28c1 4 0 3 3 5h5c0-7 2-11-4-14q-7 0-15 2z"/><path fill="#8d691e" d="m1367 1022 15-4c-2 27 0 46-1 71l-1-25v-24c0-7 2-11-4-14q-7 0-15 2z"/><path fill="#a1944e" d="M975 516q3 5 3 11-8 0-16 4c-12 11-4 18-12 24h-1c-9-11 5-29 14-35l4 1z"/><path fill="#c1ba76" d="M975 516q3 5 3 11-8 0-16 4v-6c2-4 1-2 5-4zM1108 512l2 6 10 5q4 6 5 11l-1 2c-9-7-13-9-24-10q2-9 8-14"/><path fill="#a1944e" d="M1120 523c13 2 19 25 10 31-4-3-5-12-6-18l1-2q-1-5-5-11M766 753c0-6-2-13 6-15 8 3 8 8 8 15z"/><path fill="#cda653" d="M729 732q4 0 7 2 2 8 1 19c-5-1-5 0-8-3q-1-9 0-18"/><path fill="#070706" d="M1405 278q1-18 5-37c2-9 6-46 17-49 16-5 32 23 38 35 16 34 29 91-9 118l-5 2c8 11 12 14 23 22 1-29 9-45 23-70q5-14 13-27c6-7 19-2 23 5 18 24 20 59 17 88-1 16-18 42-16 47 22 2 33-91 62-58 21 23 19 64 17 93 8 5 16 16 27 23l12-11c31-34 38 8 35 33-4 33-17 66-42 89q-13 10-27 15 8 18 12 38c2-8 5-21 9-27 12-19 31-33 47-49q12-13 24-23c7-6 17-1 20 6 10 21 4 50-1 72-10 33-27 66-58 83l-8 4-10 1-2 1 5 38c11-45 43-52 78-76 8-5 27-30 39-10 8 12-1 40-3 53-10 38-36 75-70 94-11 6-27 11-37 2l-1 40c26-39 44-43 88-61 9-5 48-34 50-2 1 26-19 58-33 78-17 27-82 78-112 51-1 11-4 33-7 43q12-13 28-21c10-5 103-34 110-34q6 0 9 5 5 6 3 13-1 10-7 19-23 47-65 77c-19 13-44 24-67 26l-25-2-6-4c-4 4-10 26-15 34 35-25 57-22 96-16 23 2 45 9 68 12 8 4 15 12 9 21-17 27-53 42-82 53-26 8-64 9-90 2l-25-11q-5 11-8 22c35 1 39-1 71 14q-4 2-4 4l2 4c-30-11-45-22-77-6-2-3-1-33 0-37-3-5-2-18 0-24-3-6-3-69-4-80-1-14-6-115-4-120-3-5-5-44-3-50a707 707 0 0 1 0-129c-3-6 4-59 4-71l2-18q5-30 13-60-1-5 3-8h3c-2-7-4-11 3-15-2-7 15-39 20-47q10-14 19-31c-9-11-24-15-27-22-4 1-46-21-53-22q-2-3-3-7v4h-1c-12-4-42-11-49-17l-15-16c-25-32-55-54-86-80-4-25-3-41-20-61l5-6 18 21zm218 650 2-8 7-4 2-1c20-120-4-236-47-348h-3q-4 2-3 8a560 560 0 0 0-15 78c0 12-7 65-4 71a707 707 0 0 0 0 129c-2 6 0 45 3 50-2 5 3 106 4 120 1 11 1 74 4 80q21-38 34-80 8-24 14-48c-1-9 2-8 1-16-5-3-3 7-9 11h-1c-2-4-1-4-1-9l1 4h1c4-5 8-29 10-37"/><path fill="#070706" d="M1581 575q-1-5 3-8h3c43 112 67 228 47 348l-2 1-7 4 2-13c-28-7-32-16-54-24v14c10 17 40 43 38 64 0 5-1 5 1 9h1c6-4 4-14 9-11 1 8-2 7-1 16q-6 24-14 48-13 42-34 80c-3-6-3-69-4-80-1-14-6-115-4-120-3-5-5-44-3-50a707 707 0 0 1 0-129c-3-6 4-59 4-71l2-18q5-30 13-60m48 220c0-11-1-26-3-37-4-1-9 4-17 3-14-2-26-11-37-14l10 9q25 20 46 41h1zm-50-147 19 13 11 8-8-28c-6 9-11 7-22 7m5 405c1-4 6-9 5-12h-6l-1 17 1 1z"/><path fill="#eedb94" d="m1561 752 30 24c20 16 36 30 40 57 1 11-2 60-13 61-16 2-46-29-56-41-4-9-2-88-1-101M1566 653c52 27 56 41 52 98q-32-6-56-27c-3-6 4-59 4-71M1569 1023c-1-14-6-115-4-120 21 26 42 42 36 79-1 7-7 46-18 48-2 1-11-5-14-7M1581 575c10 15 12 45 11 62q-13 1-24-2 5-30 13-60"/><path fill="url(#H)" d="M1774 1069q7 6 1 13c-23 26-61 40-93 48-15 5-85 3-89-17 3-12 28-41 38-48 28-20 72-8 104-3 7 2 34 8 39 7"/><path fill="#e9cf84" d="M1587 567c-2-7-4-11 3-15q22 45 35 95a617 617 0 0 1-52 480c-3-5-2-18 0-24q21-38 34-80 8-24 14-48c-1-9 2-8 1-16-5-3-3 7-9 11h-1c-2-4-1-4-1-9l1 4h1c4-5 8-29 10-37l2-8 7-4 2-1c20-120-4-236-47-348"/><path fill="#252223" d="M1623 928c7 9 0 8 6 14-2 8-5 25-8 33-1-9 2-8 1-16-5-3-3 7-9 11h-1c-2-4-1-4-1-9l1 4h1c4-5 8-29 10-37"/><path fill="#1a1714" d="m1625 920 7-4 2-1-5 27c-6-6 1-5-6-14z"/><path fill="#e9cf84" d="m1418 304-4-13c0-13 10-81 16-89 10-1 21 19 25 26 15 30 26 82 0 109q-22-12-37-33M1546 423q10-21 21-39 7-15 15-28c11-2 21 30 22 40 1 17 2 40-2 56-4 1-46-21-53-22q-2-3-3-7"/><path fill="#252223" d="M1405 278q1-18 5-37c2-9 6-46 17-49 16-5 32 23 38 35q-7-6-12-14-7-9-17-15-7-1-10 1c-5 6-9 32-9 38l2 1c6-14 1-34 11-38 10 0 24 19 25 28-4-7-15-27-25-26-6 8-16 76-16 89l4 13c-15-14 3-49-3-60h-1c-1 10-7 16-6 28q-1 9 0 19 3 9 3 18c-5-11-4-19-6-31"/><path fill="#1a1714" d="M1709 1049c23 2 45 9 68 12-11 4-9 5-21 2l-2 1c6 3 16 0 20 5-5 1-32-5-39-7l3-1 1-1c-12-5-18-5-30-11"/><path fill="#c6c6cd" d="m1398 268 7 10c2 12 1 20 6 31l8 13c-18-13-15-21-18-42z"/><path fill="#e9cf84" d="m1783 906 5 2c6 17-29 61-41 72-28 28-62 47-102 47h-5c-6-4-1-14-1-20 4-66 56-76 110-89zM1784 773l4 1c13 16-22 71-33 84-21 25-50 46-83 50l-3-1c-4-9-2-35-1-45 5-46 50-55 86-72zM1759 656q6 0 7 6c2 58-34 123-94 137l-1-1c-5-15-8-45-5-59 7-32 38-44 62-61zM1716 541q4-1 7 3c12 48-10 115-54 141q-8 6-15 4c-24-61-15-77 32-119q14-14 30-29M1670 455q2-1 4 1c4 3 4 14 4 19 0 33-11 71-35 94-7 7-19 17-29 16-23-47-10-70 26-103q14-14 30-27M1518 276c22 7 26 65 23 84-2 13-13 55-30 52-14-13-26-30-27-49-1-26 11-41 22-62q5-13 12-25"/><path fill="url(#I)" d="M1685 1373q6 5 8 11c0 4-38 78-43 89q29 17 59 33c65 37 131 79 181 135 9 10 35 41 27 54l-13 25-3 4c-6 2-18-5-23-7q-33-13-65-21l-42-7c-6 0-25-2-29 0v1c22 35 43 71 55 110 3 9 8 22 9 30 8 27 10 50 16 77l-13 22-3 7-4 5q-9 2-13-6-16-24-36-46a638 638 0 0 0-179-140c-78-38-165-59-240-104-6-3-11-12-14-18a1166 1166 0 0 0-246 103q-18 13-37 25l-8-1 1-2 13-12c21-18 47-28 69-43 3 0 19-8 22-10 22-12 49-20 71-32l50-18c21-7 52-15 71-23l14-4c38-9 97-41 123-71l7-7c30 16 86 63 94 95l1-3c5-6 27-51 32-61l29-58c2-5 10-23 13-26-4-6 44-82 44-97 0-5 0-5 2-9"/><path fill="#e9cf84" d="M1685 1373q6 5 8 11c0 4-38 78-43 89q29 17 59 33c65 37 131 79 181 135 9 10 35 41 27 54l-13 25-3 4c-6 2-18-5-23-7q-33-13-65-21l-42-7c-6 0-25-2-29 0v1l-7 7-15-21 24 1c0-8 11-15 15-21 5-6 10-21 15-26 15-16 21-26 29-46q3-3 7-2c-37-28-80-55-121-77l-50-26c-4-6 44-82 44-97 0-5 0-5 2-9"/><path fill="url(#J)" d="M1685 1373q6 5 8 11c0 4-38 78-43 89q29 17 59 33c65 37 131 79 181 135 9 10 35 41 27 54-7-6-12-18-17-25q-12-19-28-34c-16-19-42-40-62-54-37-28-80-55-121-77l-50-26c-4-6 44-82 44-97 0-5 0-5 2-9"/><path fill="#cda653" d="M1872 1636q16 15 28 34c5 7 10 19 17 25l-13 25-3 4c-6 2-18-5-23-7 0-5 0-5 2-9-8-4-28-10-38-13 2-1 18-54 30-59"/><path fill="#070706" d="M1880 1708c7 3 18 7 24 12l-3 4c-6 2-18-5-23-7 0-5 0-5 2-9"/><path fill="#252223" d="M1799 1685q22 3 43 10c10 3 30 9 38 13-2 4-2 4-2 9q-33-13-65-21l-42-7 23-2h3z"/><path fill="#1a1714" d="m1720 1676 24 1 30 3q13 2 25 5l-2 2h-3l-23 2c-6 0-25-2-29 0v1l-7 7z"/><path fill="#070706" d="M1774 1680q13 2 25 5l-2 2h-3c-7-1-22 2-26-2q3-3 6-5"/><path fill="url(#K)" d="m1463 1539 7-7c30 16 86 63 94 95-18 45-99 16-131 3q1 3-2 5c-6 7-19 33-27 36a560 560 0 0 1-73-39c-3-6-2-11-5-18l14-4c38-9 97-41 123-71"/><path fill="#7c5d25" d="M1331 1629q-2-8 0-14c3-3 22-7 27-8 9 6 23 5 34 8 13 4 30 9 41 15q1 3-2 5c-6 7-19 33-27 36-12-5-42-19-54-26q-7-6-19-16"/><path fill="#e9cf84" d="M1742 1690c22 35 43 71 55 110 3 9 8 22 9 30 8 27 10 50 16 77l-13 22-3 7c-2-2-9-5-11-8-17-26-37-46-58-69l-24-23c-8-8-28-23-33-29q-2-6-9-9c22-9 25-24 38-43l25-37q4-9 4-12l4 5h1l-8-14z"/><path fill="url(#L)" d="M1742 1690c22 35 43 71 55 110 3 9 8 22 9 30 8 27 10 50 16 77l-13 22-3 7c-2-2-9-5-11-8-17-26-37-46-58-69q7 4 11 5l7-13 17-32q6-10 13-20l-1-10c-9-21-27-60-41-78l-8-14z"/><path fill="#070706" d="M1742 1690c22 35 43 71 55 110 3 9 8 22 9 30v29l-2-3-1-1a392 392 0 0 0-60-144l-8-14z"/><path fill="#1a1714" d="M1806 1830c8 27 10 50 16 77l-13 22c-2-4 1-29 0-37l-6-37 1 1 2 3z"/><path fill="#252223" d="M1326 1614c3 7 2 12 5 18a560 560 0 0 0 73 38l55 23q64 22 126 52 44 23 84 53l11 9c5 6 25 21 33 29l24 23c21 23 41 43 58 69 2 3 9 6 11 8l-4 5q-9 2-13-6-16-24-36-46a638 638 0 0 0-179-140c-78-38-165-59-240-104-6-3-11-12-14-18a1166 1166 0 0 0-246 103q-18 13-37 25l-8-1 1-2 13-12c21-18 47-28 69-43 3 0 19-8 22-10 22-12 49-20 71-32l50-18c21-7 52-15 71-23"/><path fill="#070706" d="M416 940c2-17-6-39-3-52l1-1 2 2q-1 6 2 10c6 54 17 92 35 143l10 25 22 47c1 7 2 42 1 47 0 16 0 52 2 67 0 5 3 27 2 31h-1c5 5 4 20 6 28-11 5-45 29-50 29-1 2-33 26-37 31-8 6-24 23-29 32v14c2 10 19 47 24 52 3 8 14 29 14 35l-44 24c-39 22-91 51-124 79h5l5 16 34 58q8 12 17 21l-35 4q0 3 2 5c9 3 25-1 34 2-51 0-106 18-151 40-8 4-21 11-28 4-4-7-1-17 1-24 20-88 158-169 231-210q21-11 41-23l1-1c-10-17-27-55-33-74-2-6-1-21-1-28 12-20 42-40 53-56-6-5-18-16-20-24-5-22 81-29 75-47-8-5-43-1-56-3s-19-2-33-6c-11-3-73-25-52-48 6-7 28-10 37-14l22-10c30-15 47-18 81-18l-7-24-3 2c-18 17-56 16-78 15-38-3-88-24-113-53q-7-6-7-16 1-6 6-10c4-3 91-16 101-17l23 1q35 4 56 32-11-30-24-58v4c-4 15-22 14-35 13-41-4-81-35-107-66-11-13-43-58-23-73 9-7 27 3 35 7l15 4 40 12c34 11 46 18 63 48z"/><path fill="#e9cf84" d="M185 1638c13-15 47-45 64-55h5l5 16 34 58q8 12 17 21l-35 4q0 3 2 5c9 3 25-1 34 2-51 0-106 18-151 40-8 4-21 11-28 4-4-7-1-17 1-24 0 4-1 4 1 8l6 2c4-27 25-63 45-81"/><path fill="#cda653" d="M140 1719c4-27 25-63 45-81 8 4 27 45 31 54q17-7 37-6l22-4q0 3 2 5c9 3 25-1 34 2-51 0-106 18-151 40-8 4-21 11-28 4-4-7-1-17 1-24 0 4-1 4 1 8z"/><path fill="url(#M)" d="m253 1686 22-4q0 3 2 5c9 3 25-1 34 2-51 0-106 18-151 40-8 4-21 11-28 4-4-7-1-17 1-24 0 4-1 4 1 8l6 2v7c7 0 32-14 40-17 26-10 47-16 73-23"/><path fill="url(#N)" d="M395 1229c-13-4-47-16-51-30q1-4 7-6l37-14c39-15 56-31 98-18 0 16 0 52 2 67q-46 14-93 1"/><path fill="#e9cf84" d="M489 1259c5 5 4 20 6 28-11 5-45 29-50 29-8-3-31-14-30-24 6-10 27-12 38-17z"/><path fill="url(#O)" d="M384 1052c45 0 65 24 83 63l-1 1c-27 19-66 16-96 11-18-3-96-36-88-57 7-4 91-17 102-18"/><path fill="#e9cf84" d="M273 903c10 1 27 9 37 12 32 11 73 14 95 43 9 12 19 54 17 68-64 3-121-43-147-100q-5-12-2-23"/><path fill="#070706" d="m613 344-12-3q-13-8-17-23c-9-31-2-69 14-97 6-11 19-27 32-30q5-2 10 1c5 4 14 54 16 63-2 7-2 37 0 44l-8 20c8-7 8-14 10-24 4-20 4-32 21-48q15-13 33-24c15-8 78-27 97-24q7 2 11 8 2 8-1 17a119 119 0 0 1-23 38c-20 25-62 64-95 66-18 1-24 4-38 17q20 0 38-3l17 4 1 2v2l-6 1-2 1c7 0 19-1 15 10-3 8-15 19-21 25l-18 15c-14 1-37 0-49 2l-33 2c-5 1-17 3-22 2q-5 3-10 4l-4-2c-6 4-43 12-53 16l-1-1q-2-11-8-20c4-2 2-2 5-1l4 5c4 4 12 11 17 6v-3l-2 3h-2l-1-2c0-3-6-14-9-19-18-36-13-95 16-125 5-5 18-5 21 3 13 33 38 63 32 99l23-21 2-4z"/><path fill="#e9cf84" d="M712 223c15-8 78-27 97-24q7 2 11 8 2 8-1 17a119 119 0 0 1-23 38c-20 25-62 64-95 66-18 1-24 4-38 17q20 0 38-3l17 4 1 2v2l-6 1-2 1c7 0 19-1 15 10-3 8-15 19-21 25l-18 15c-14 1-37 0-49 2l-33 2c-5 1-17 3-22 2q-5 3-10 4l-4-2c35-46 54-61 98-96 2-26 3-39 18-61 17-16 29-21 50-28q2-3 5-4l-1-1q-13 3-27 3"/><path fill="#eedb94" d="M711 352c7 0 19-1 15 10-3 8-15 19-21 25l-18 15c-14 1-37 0-49 2l-33 2c4-11 11-25 18-34 15-16 66-19 88-20"/><path fill="url(#P)" d="M785 259c7 1 5 1 11-2v5c-20 25-62 64-95 66-18 1-24 4-38 17q20 0 38-3l17 4 1 2v2l-6 1-2 1c-22 1-73 4-88 20-7 9-14 23-18 34-5 1-17 3-22 2 23-26 40-49 69-70q11-8 23-15c10-5 21-5 32-8 32-8 58-32 78-56"/><path fill="#3e3c39" d="M712 223c15-8 78-27 97-24q7 2 11 8 2 8-1 17-4 10-9 19c-1-9 8-27 4-33l-1 3q0-3-4-4c-20-2-56 12-74 16q2-3 5-4l-1-1q-13 3-27 3"/><path fill="#252223" d="m813 213 1-3c4 6-5 24-4 33q-6 10-14 19v-5c-6 3-4 3-11 2 13-15 19-28 28-46"/><path fill="#98989a" d="m656 299-8 20-10 6c8-11 7-19 18-26M613 344q8-7 18-11l-20 17 2-4z"/><path fill="#e9cf84" d="m544 276 2 1c5 5 6 16 10 22 25 44 36 67-4 109l-6 3c-13-5-24-35-25-47-3-26 1-72 23-88M628 201q5-1 6 1c3 7 4 18 5 25 4 22 9 39 7 62-2 21-21 34-36 46l-3 1-4-3c-25-35-7-109 25-132"/><path fill="#070706" d="M444 451c8-1 8-7 15-9l1 5c-1 5-1 4-6 8l-27 19q8 13 18 24a182 182 0 0 1 27 57l-2 6q-23 50-37 102l-10 42c-2 17-6 38-7 55h-3c-6-9 5-48 6-61v-2q3-5 0-12-2 0-3 2l1 2-7 10c-13-2-12-1-25-5-13-5-38-36-42-48-14-21-29-87-10-111 12-16 37 14 44 23q8 10 18 19c12 9 25 24 30 39 2 5 5 19 8 22 0-8 9-33 12-42q-38-14-58-51c-10-16-17-62-13-81q0-13 11-19c30-4 28 43 59 6"/><path fill="#e9cf84" d="M337 544q4-3 8-3c11 6 47 48 59 58 23 19 15 63 3 86l-4 3c-8 1-21-9-27-14-20-17-32-47-38-72-4-25-1-34-1-56zM386 455c14 0 31 26 42 34 29 22 40 65 16 96-35-15-49-43-57-79-3-19-3-32-1-51"/><path fill="#252223" d="M343 646c-14-21-29-87-10-111 12-16 37 14 44 23q8 10 18 19c-8-1-37-32-44-40h-5q-9 1-14 10l2 7h1c0-6-1-6 2-10v2c0 22-3 31 1 56-8 11 6 34 5 44"/><path fill="#1a1714" d="M387 545c-10-16-17-62-13-81q0-13 11-19l-3 13 1 2 3-5c-2 19-2 32 1 51-7 8 1 31 0 39"/><path fill="#98989a" d="M425 616c2 5 5 19 8 22q-2 9-6 18c0-8-3-33-2-40"/><path fill="#e9cf84" d="M1244 219c-5-27 20-19 37-15 37 9 71 16 99 43l-5 6c17 20 16 36 20 61 31 26 61 48 86 80l15 16-7 4-3-1-3-4c-2 1-16-1-20-1q-1-7-6-13v11l-37-3c-8 0-37 0-42-2-14-9-28-26-37-39 3-5 3-5 8-8 14-5 42-4 58-4l-23-20c-15-1-23-2-38-6l-7-3c-36-14-85-63-95-102"/><path fill="#eedb94" d="M1349 354c30 6 80-1 100 28l8 13v11l-37-3c-8 0-37 0-42-2-14-9-28-26-37-39 3-5 3-5 8-8"/><path fill="#070706" d="m1351 315 1 1c25 7 29 0 52 18 31 24 55 45 79 75-2 1-16-1-20-1q-1-7-6-13l-8-13c-20-29-70-22-100-28 14-5 42-4 58-4l-23-20c-15-1-23-2-38-6 2-5 1-5 5-9"/><path fill="#252223" d="m1244 219 2-6v-3l1 3 1 1 19 34q28 42 75 64l9 3c-4 4-3 4-5 9l-7-3c-36-14-85-63-95-102"/><path fill="#1a1714" d="m1342 312 9 3c-4 4-3 4-5 9l-7-3v-4zM1271 210l2-5c4-2 4-1 8-1 37 9 71 16 99 43l-5 6c-28-26-67-34-104-43"/><path fill="#3e3c39" d="M1244 219c-5-27 20-19 37-15-4 0-4-1-8 1l-2 5c-7-1-15-4-21 0l-2 4-1-1-1-3v3z"/><path fill="#070706" d="m272 823-5-12c-10-26-12-69 27-41l22 11c30 12 67 27 80 60 7 18 11 46 4 64-8 17-37 6-49 0q-42-21-67-61c-3-5-10-15-12-21"/><path fill="#e9cf84" d="M272 771c10 2 24 11 34 16 24 12 56 22 74 43 14 18 15 53 11 74-59 0-111-65-120-119z"/><path fill="#1a1714" d="m272 823-5-12c-10-26-12-69 27-41-8 2-15-7-22-4v5l-1 14c-9 16 3 27 1 38"/><path fill="#e9cf84" d="M291 710c-7-14-11-50 0-62 8-10 19-1 26 6 32 25 91 46 88 97-1 5-4 25-1 28l-3 16c-9 20-33 10-46 2-30-18-56-54-64-87"/><path fill="url(#Q)" d="M317 654c32 25 91 46 88 97-1 5-4 25-1 28l-3 16c-9 20-33 10-46 2-30-18-56-54-64-87l6 4c2-4-4-11 0-17q0 7 3 13l1-2c13 36 45 88 88 88q7-23 6-47c-1-48-53-59-80-85-2-6 0-5 1-9z"/><path fill="#252223" d="M291 710c-7-14-11-50 0-62 8-10 19-1 26 6l-1 1c-1 4-3 3-1 9l-15-10q-4 2-5 6c-3 15 3 34 6 48l-1 2q-3-7-3-13c-4 6 2 13 0 17z"/><path fill="#070706" d="m300 654-2-1v-2q11-3 18 4c-1 4-3 3-1 9z"/><path fill="url(#R)" d="M1573 1164c32-16 47-5 77 6l-2-4q0-2 4-4l34 14c9 4 27 9 35 14q12 16-6 27c-27 21-61 25-94 29-3 1-20-1-25-1q11-3 20-6l1-3c-19 0-28-2-46-8 1-15-1-51 2-64"/><path fill="url(#S)" d="m1713 1195 8-5q12 16-6 27c-27 21-61 25-94 29-3 1-20-1-25-1q11-3 20-6l1-3c31-2 63-7 89-24q8-3 10-11 0-4-3-6"/><path fill="#1a1714" d="m1652 1162 34 14c9 4 27 9 35 14l-8 5c-11-1-53-18-63-25l-2-4q0-2 4-4"/><path fill="#e9cf84" d="M444 451q4-5 4-10c-2-28-2-64 15-88 8-10 23-14 31-2l11 23c5 12 13 31 23 39l1 2h2l2-3v3c-5 5-13-2-17-6l-4-5c-3-1-1-1-5 1q5 9 8 20c-3 3-30 11-35 15l-18 10-2-1v-2l-1-5c-7 2-7 8-15 9"/><path fill="url(#T)" d="M444 451q4-5 4-10c-2-28-2-64 15-88 8-10 23-14 31-2l11 23c5 12 13 31 23 39l1 2h2l2-3v3c-5 5-13-2-17-6l-4-5c-3-1-1-1-5 1q-10-16-16-34c-2-5-5-14-10-17-21 1-24 58-23 72l1 16c-7 2-7 8-15 9"/><path fill="#252223" d="m417 689-1-2q1-2 3-2 3 7 0 12v2c-1 13-12 52-6 61h3c-3 28-3 63-3 91q0 5-3 7l-3-53-2-16v-10h-1c-3-3 0-23 1-28l2 6 1-1c0-20 4-34 7-53q3-8 2-14"/><path fill="#070706" d="M1571 1228c18 6 27 8 46 8l-1 3q-9 3-20 6c-5 0-15-1-18 4 2 6 17 12 23 15l-4 8-27-13-1-2c0-6 0-24 2-29"/><path fill="#3e3c39" d="m404 794 1-5 2 16 3 53q3-2 3-7l3 38-2-2-1 1c-3 13 5 35 3 52-13-51-13-94-12-146"/><path fill="none" d="M656 299c-2-7-2-37 0-44 6 18 1 25 2 40-2 10-2 17-10 24z"/><path fill="#f0f1f1" fill-opacity=".1" d="M404 779zv10l-1 5-3 1z"/></svg>